<svg xmlns="http://www.w3.org/2000/svg" width="292.105" height="162.252" viewBox="0 0 292.105 162.252">
                <g id="_4587بتثنتباثی-03-03" data-name="4587بتثنتباثی-03-03" transform="translate(-180.557 -188.372)">
                  <path id="Path_1035" data-name="Path 1035" d="M191.193,349.958a51.471,51.471,0,0,1-9.826-40.507c3.252-18.429,5.841-22.687,38.02-42.091,31.048-18.724,4.437-74.161,83.982-72.561,48.457.975,66.041-17.053,101.606,3.337,34,19.494,2.12,39.786,54.82,74.635,18.989,12.557,17.24,64.314-7.088,76.952Z" transform="translate(0 0)" fill="#d0eeeb"/>
                  <path id="Path_1036" data-name="Path 1036" d="M1216.346,353.952c-1.747-6.447-12.626-4.432-12.626-4.432s-7.389,11.282-9.538,11.552,4.432-10.881,4.432-10.881c-4.163-.4-14.776,4.7-14.776,4.7s.673,13.163-1.477,12.895,0-11.686,0-11.686c-4.029,1.208-7.79,5.91-7.79,5.91-4.7,7.656,5.372,13.3,5.372,13.3a21.425,21.425,0,0,1-2.687,9.805h0a15.58,15.58,0,0,0-1.282,2.612h1.1q.134-.442.3-.853h0v-.012c.076-.177.177-.412.318-.707h0c.336-.657.562-1.141.707-1.493h0c1.007-2.061,2.455-4.748,3.421-5.313a2.078,2.078,0,0,1-.235-.5c.074.161.152.329.235.5,1.88,4.031,11.282,4.7,16.521,3.628s2.955-2.552.134-4.946-8.731-1.766-10.476-2.706.805-1.881,4.3-1.611,5.239,3.761,10.881,4.3,9.939-10.068,9.939-10.068c-3.895,1.208-10.881-.941-11.149-2.284s10.068-1.208,11.686-1.613S1218.091,360.39,1216.346,353.952Z" transform="translate(-817.404 -132.437)" fill="#2fc4b2" opacity="0.4"/>
                  <path id="Path_1037" data-name="Path 1037" d="M643.953,812.767c-5.366-7.949,7.039-17.881,7.039-17.881s19.2,2.568,21.507.486-15.984-5.4-15.984-5.4c3.473-4.9,18.983-11.639,18.983-11.639s13.67,13.091,15.4,10.5-12.7-10.973-12.7-10.973c5.1-3.241,13.737-2.906,13.737-2.906,12.739,2.074,9.4,18.317,9.4,18.317a30.761,30.761,0,0,0,13.175,6.288h0a22.352,22.352,0,0,1,4.043,1.06l-1.031,1.194q-.606-.27-1.206-.477H716.3c-.254-.078-.618-.187-1.06-.316h0c-1.03-.253-1.766-.461-2.286-.634h0c-3.18-.844-7.466-1.795-8.986-1.274a3.078,3.078,0,0,0-.327-.728l.327.728c2.612,5.829-5.488,16.675-11.575,21.357s-5.546.813-5.5-4.5,6.279-11.144,6.889-13.924-2.8-.883-5.787,3.157-.834,9.224-5.546,15.859-20.28,1.339-20.28,1.339c4.971-3.1,9.2-12.7,7.987-14.256s-10.775,9.81-12.718,11.183S649.318,820.717,643.953,812.767Z" transform="translate(-380.434 -482.961)" fill="#2fc4b2" opacity="0.4"/>
                  <path id="Path_1038" data-name="Path 1038" d="M718.12,330.075c2.614-9.579,18.782-6.551,18.782-6.551s10.952,16.791,14.142,17.2-6.557-16.185-6.557-16.185c6.182-.586,21.947,7.03,21.947,7.03s-1.035,19.564,2.16,19.172.034-17.371.034-17.371c5.986,1.809,11.563,8.807,11.563,8.807,6.96,11.395-8.03,19.743-8.03,19.743a31.846,31.846,0,0,0,3.964,14.583h0a23.045,23.045,0,0,1,1.9,3.886h-1.632c-.133-.438-.279-.862-.442-1.268h0a.122.122,0,0,1,0-.018c-.111-.253-.272-.613-.472-1.06h0c-.5-.977-.832-1.7-1.044-2.22-1.489-3.068-3.635-7.066-5.07-7.908a3.2,3.2,0,0,0,.353-.747q-.177.353-.353.747c-2.817,5.981-16.8,6.952-24.572,5.34s-4.384-3.8-.185-7.359,12.983-2.6,15.581-3.992-1.192-2.8-6.384-2.408-7.8,5.575-16.185,6.359-14.746-15-14.746-15c5.787,1.807,16.175-1.367,16.579-3.356s-14.974-1.828-17.372-2.438S715.5,339.661,718.12,330.075Z" transform="translate(-441.924 -110.904)" fill="#2fc4b2" opacity="0.4"/>
                  <path id="Path_1039" data-name="Path 1039" d="M651.782,605.753c.751-7.311,12.921-7.053,12.921-7.053s10.024,10.939,12.405,10.849-6.744-11.027-6.744-11.027c4.449-1.176,16.878,2.473,16.878,2.473s1.607,14.412,3.886,13.739-2.074-12.688-2.074-12.688c4.593.6,9.508,5.034,9.508,5.034,6.463,7.479-3.474,15.392-3.474,15.392a23.584,23.584,0,0,0,4.658,10.169h0a17,17,0,0,1,1.858,2.607l-1.194.194c-.15-.3-.307-.6-.475-.873h0v-.012c-.111-.177-.272-.413-.47-.707h0c-.48-.654-.814-1.141-1.032-1.5h0c-1.457-2.06-3.508-4.722-4.658-5.161a2.3,2.3,0,0,0,.166-.588l-.166.588c-1.327,4.709-11.416,7.108-17.295,6.871s-3.662-2.247-1.025-5.352,9.166-3.467,10.9-4.8-1.208-1.9-4.946-.987-5.02,5.013-11.05,6.6-12.58-9.175-12.58-9.175c4.444.622,11.646-2.952,11.7-4.458s-11.151.475-12.974.325S651.031,613.064,651.782,605.753Z" transform="translate(-387.906 -337.509)" fill="#2fc4b2" opacity="0.4"/>
                  <path id="Path_1040" data-name="Path 1040" d="M1435.486,767.518a.716.716,0,0,0-.154-.353,5.392,5.392,0,0,1-.228-1.07c.014-.272-.318-.177-.461.042-.048.072.023.371.012.463a6.964,6.964,0,0,0-2.342-.707s-.883-.177-.367.627c.341.53.673.565,1.168,1.311a2.088,2.088,0,0,0,1.943,1.072l.731.15.58-1.136Z" transform="translate(-1030.214 -475.495)" fill="#e98c94"/>
                  <path id="Path_1041" data-name="Path 1041" d="M1466.722,757.363s3.517,13.472-7.175,11.232c-2.886-.6-10.577-8.268-10.577-8.268s.74-1.168,1.652-1.044c0,0,7.429,2.416,8.618,3.291.659.484,1.413-7.147,3.685-7.039A5.961,5.961,0,0,1,1466.722,757.363Z" transform="translate(-1044.363 -466.979)" fill="#289c8e"/>
                  <path id="Path_1042" data-name="Path 1042" d="M1540.473,1083.615s-.2,3.167-.809,3.213h-3.109l-3.865-.023a1.254,1.254,0,0,1,1.155-1.129,5.259,5.259,0,0,0,3.709-2.484C1538.27,1081.63,1540.473,1083.615,1540.473,1083.615Z" transform="translate(-1113.295 -736.268)" fill="#093830"/>
                  <path id="Path_1043" data-name="Path 1043" d="M1516.939,907.311a8.039,8.039,0,0,1-2.091.394,7.665,7.665,0,0,1-1.954-.279,53.381,53.381,0,0,0-1.438-6.852c-.639-2.473-1.551-5.652-2.847-9.593a128.728,128.728,0,0,1-4.769-17.893v-.048h.012l11.02-4.84s-1.362,15.034.376,20.8a24.234,24.234,0,0,1,.631,2.764A111.733,111.733,0,0,1,1516.939,907.311Z" transform="translate(-1089.541 -559.744)" fill="#0d5e52"/>
                  <path id="Path_1044" data-name="Path 1044" d="M1515.853,891.739l-4.416,8.811c-.64-2.473-1.551-5.652-2.847-9.593a128.762,128.762,0,0,1-4.769-17.893v-.053l11.021-4.84s-1.362,15.034.376,20.8A24.217,24.217,0,0,1,1515.853,891.739Z" transform="translate(-1089.525 -559.72)" fill="#0d5e52"/>
                  <path id="Path_1045" data-name="Path 1045" d="M1491.715,1083.615s-.2,3.167-.811,3.213h-3.109l-3.865-.023a1.256,1.256,0,0,1,1.155-1.129,5.262,5.262,0,0,0,3.709-2.484C1489.514,1081.63,1491.715,1083.615,1491.715,1083.615Z" transform="translate(-1073.148 -736.268)" fill="#093830"/>
                  <path id="Path_1046" data-name="Path 1046" d="M1492.64,870.18a156.948,156.948,0,0,0,1.542,21.7c1.687,11.96,1.115,17.038,1.115,17.038a11.617,11.617,0,0,0,1.625.413,7.382,7.382,0,0,0,2.413-.279s2.411-11.965,1.72-17.953,3.3-20.543,3.3-20.543Z" transform="translate(-1080.319 -561.375)" fill="#0d5e52"/>
                  <path id="Path_1047" data-name="Path 1047" d="M1514.353,717.039l-1.934,1.7-3.158-.14c0-.254.065-1.312.118-2.271l.011-.168c.046-.816.086-1.517.086-1.517l2.7-1.674,1.005-.625c0,.018.042.894.048,1.021A7.377,7.377,0,0,0,1514.353,717.039Z" transform="translate(-1094.004 -431.415)" fill="#fff" stroke="#000" stroke-miterlimit="10" stroke-width="0.3"/>
                  <path id="Path_1048" data-name="Path 1048" d="M1489,760.526c.044,5.142.387,17.171.639,17.415,2.68,2.586,14.46-.706,15.083-3.557s-2.372-36.518-6.947-37.862c-.95-.279-6.025,1.362-6.025,1.362a32.339,32.339,0,0,0-1.318,4.734c-.193.984-.825,8-1.192,12.683-.1,1.251-.177,2.333-.224,3.093C1489,758.707,1489,759.472,1489,760.526Z" transform="translate(-1077.323 -451.299)" fill="#289c8e"/>
                  <path id="Path_1049" data-name="Path 1049" d="M1499.094,688.107s4.877.454,5.122-2.588,1.023-5.032-2.081-5.451-3.8.7-4.126,1.692S1497.831,687.911,1499.094,688.107Z" transform="translate(-1084.619 -404.769)" fill="#fff" stroke="#000" stroke-miterlimit="10" stroke-width="0.3"/>
                  <path id="Path_1050" data-name="Path 1050" d="M1496.075,673.563s1,3.27,1.659,2.978,1.259-.53,1.372.495-.6,2.388,1.565,2.12,4.047-6.4,3.243-7.309C1501.595,669.2,1492.865,670.433,1496.075,673.563Z" transform="translate(-1082.571 -396.886)" fill="#093830"/>
                  <path id="Path_1051" data-name="Path 1051" d="M1505.84,730.392c.06-.026,3.482-1.56,3.886-1.429s.9,1.355.9,1.355l-6.025,1.362A2.964,2.964,0,0,1,1505.84,730.392Z" transform="translate(-1090.167 -445.095)" fill="#d0eeeb"/>
                  <path id="Path_1052" data-name="Path 1052" d="M1489,799.538c9.168-6.629,9.418-15.668,9.418-15.668-4.361,2.461-7.835,5.972-9.185,10.441-.1,1.251-.177,2.333-.224,3.093C1489,797.718,1489,798.483,1489,799.538Z" transform="translate(-1077.323 -490.31)" fill="#117c6f"/>
                  <rect id="Rectangle_295" data-name="Rectangle 295" width="1.526" height="67.797" transform="translate(395.4 281.933)" fill="#093830"/>
                  <path id="Path_1053" data-name="Path 1053" d="M1425.172,731.7h4.889v6.495a2.411,2.411,0,0,1-2.411,2.411h-.069a2.411,2.411,0,0,1-2.411-2.411V731.7Z" transform="translate(-1024.767 -447.355)" fill="#ecf1f9"/>
                  <path id="Path_1054" data-name="Path 1054" d="M1427.382,759.79h4.1v1.475a2.024,2.024,0,0,1-2.024,2.024h-.058a2.024,2.024,0,0,1-2.024-2.024V759.79Z" transform="translate(-1026.587 -470.484)" fill="#117c6f"/>
                  <rect id="Rectangle_296" data-name="Rectangle 296" width="10.937" height="1.215" transform="translate(395.4 281.933)" fill="#093830"/>
                  <rect id="Rectangle_297" data-name="Rectangle 297" width="0.843" height="1.468" transform="translate(402.48 283.149)" fill="#fff"/>
                  <path id="Path_1055" data-name="Path 1055" d="M1394.466,837.382a.706.706,0,0,0-.288-.26,5.347,5.347,0,0,1-.666-.8c-.177-.419-.417-.177-.353.216.016.085.131.27.159.353a6.953,6.953,0,0,0-2.42.344s-.869.21-.071.722c.53.343.848.231,1.607.707a2.077,2.077,0,0,0,2.208.162l.726-.177.051-1.274Z" transform="translate(-996.213 -533.314)" fill="#fff" stroke="#000" stroke-miterlimit="10" stroke-width="0.3"/>
                  <path id="Path_1056" data-name="Path 1056" d="M1246.346,323.952c-1.747-6.447-12.626-4.432-12.626-4.432s-7.389,11.282-9.539,11.552,4.432-10.881,4.432-10.881c-4.163-.4-14.776,4.7-14.776,4.7s.673,13.163-1.477,12.895,0-11.686,0-11.686c-4.029,1.208-7.79,5.91-7.79,5.91-4.7,7.655,5.371,13.3,5.371,13.3a21.425,21.425,0,0,1-2.687,9.805h0a15.564,15.564,0,0,0-1.282,2.613h1.1q.134-.442.3-.853h0v-.012c.076-.177.177-.412.318-.707h0c.336-.657.562-1.141.707-1.493h0c1.007-2.061,2.455-4.748,3.422-5.313a2.075,2.075,0,0,1-.235-.5c.074.161.152.329.235.5,1.879,4.031,11.282,4.7,16.521,3.628s2.955-2.552.134-4.946-8.731-1.766-10.476-2.706.806-1.881,4.3-1.611,5.239,3.761,10.881,4.3,9.939-10.068,9.939-10.068c-3.895,1.208-10.881-.941-11.149-2.284s10.068-1.208,11.686-1.613S1248.091,330.39,1246.346,323.952Z" transform="translate(-842.105 -107.736)" fill="#093830"/>
                  <path id="Path_1057" data-name="Path 1057" d="M673.953,782.767c-5.366-7.949,7.039-17.881,7.039-17.881s19.2,2.568,21.507.486-15.984-5.4-15.984-5.4c3.473-4.9,18.983-11.639,18.983-11.639s13.67,13.091,15.4,10.5-12.7-10.973-12.7-10.973c5.1-3.241,13.737-2.906,13.737-2.906,12.732,2.081,9.4,18.324,9.4,18.324a30.759,30.759,0,0,0,13.175,6.288h0a22.33,22.33,0,0,1,4.043,1.06l-1.031,1.194q-.606-.27-1.206-.477H746.3c-.254-.078-.618-.187-1.06-.316h0c-1.03-.253-1.766-.461-2.286-.634h0c-3.18-.844-7.466-1.795-8.986-1.274a3.076,3.076,0,0,0-.327-.728l.327.728c2.612,5.829-5.488,16.675-11.575,21.357s-5.546.813-5.5-4.5,6.279-11.144,6.889-13.924-2.8-.883-5.787,3.157-.834,9.224-5.546,15.859-20.28,1.339-20.28,1.339c4.971-3.1,9.2-12.7,7.987-14.256s-10.775,9.81-12.718,11.183S679.318,790.717,673.953,782.767Z" transform="translate(-405.135 -458.26)" fill="#093830"/>
                  <path id="Path_1058" data-name="Path 1058" d="M543.277,788.265s5.1-5.744,5.228-8.33-1.2-3.515-1.2-3.515l-4.582.76-2.885,2.077,1.136,7.419,2.309,2.519Z" transform="translate(-295.82 -484.176)" fill="#093830"/>
                  <path id="Path_1059" data-name="Path 1059" d="M748.12,300.075c2.614-9.579,18.782-6.551,18.782-6.551s10.952,16.791,14.142,17.2-6.557-16.185-6.557-16.185c6.182-.586,21.947,7.03,21.947,7.03s-1.035,19.564,2.16,19.172.034-17.371.034-17.371c5.986,1.809,11.563,8.807,11.563,8.807,6.96,11.395-8.03,19.743-8.03,19.743a31.845,31.845,0,0,0,3.964,14.583h0a23.038,23.038,0,0,1,1.9,3.886h-1.632c-.132-.438-.279-.862-.442-1.268h0a.131.131,0,0,1,0-.018c-.111-.253-.272-.613-.472-1.06h0c-.5-.977-.832-1.7-1.044-2.22-1.489-3.068-3.635-7.066-5.07-7.908a3.2,3.2,0,0,0,.353-.747q-.177.353-.353.747c-2.817,5.981-16.8,6.952-24.572,5.34s-4.384-3.8-.185-7.359,12.983-2.6,15.581-3.992-1.192-2.8-6.384-2.408-7.8,5.575-16.185,6.359-14.746-15-14.746-15c5.787,1.807,16.175-1.367,16.579-3.356s-14.974-1.828-17.372-2.438S745.5,309.661,748.12,300.075Z" transform="translate(-466.625 -86.203)" fill="#093830"/>
                  <path id="Path_1060" data-name="Path 1060" d="M681.782,575.753c.751-7.311,12.921-7.053,12.921-7.053s10.024,10.939,12.405,10.849-6.744-11.027-6.744-11.027c4.449-1.176,16.878,2.473,16.878,2.473s1.607,14.412,3.886,13.739-2.074-12.688-2.074-12.688c4.593.6,9.508,5.034,9.508,5.034,6.463,7.479-3.474,15.392-3.474,15.392a23.584,23.584,0,0,0,4.658,10.169h0a17,17,0,0,1,1.858,2.607l-1.194.194c-.15-.3-.307-.6-.475-.873h0v-.012c-.111-.177-.272-.413-.47-.707h0c-.48-.654-.814-1.141-1.032-1.5h0c-1.457-2.06-3.508-4.721-4.658-5.161a2.3,2.3,0,0,0,.166-.588l-.166.588c-1.327,4.709-11.416,7.108-17.295,6.871s-3.662-2.247-1.024-5.352,9.166-3.467,10.895-4.8-1.208-1.9-4.946-.987-5.02,5.013-11.05,6.6-12.58-9.175-12.58-9.175c4.444.622,11.646-2.952,11.7-4.458s-11.151.475-12.974.325S681.031,583.064,681.782,575.753Z" transform="translate(-412.607 -312.808)" fill="#093830"/>
                  <path id="Path_1061" data-name="Path 1061" d="M1105.428,572.633c-7.018-5.55-17.125,5.3-17.125,5.3s1.038,18.035-1.06,20.036-3.9-15.244-3.9-15.244c-4.8,2.885-12.16,16.835-12.16,16.835s11.215,13.636,8.687,15.06-9.314-12.58-9.314-12.58c-3.374,4.513-3.676,12.571-3.676,12.571,1.04,11.988,16.381,10.033,16.381,10.033a28.692,28.692,0,0,1,4.923,12.7h0a20.91,20.91,0,0,0,.707,3.835l1.182-.883q-.207-.583-.353-1.155h0a.049.049,0,0,0,0-.016c-.055-.244-.131-.59-.219-1.014h0c-.163-.975-.3-1.678-.429-2.169h0c-.562-3.021-1.143-7.066-.553-8.445a2.9,2.9,0,0,1-.654-.353l.654.353c5.237,2.839,15.9-3.932,20.677-9.263s1.148-5.1-3.8-5.437-10.807,5.057-13.437,5.437-.631-2.667,3.344-5.161,8.636-.125,15.138-4.043,2.671-18.768,2.671-18.768c-3.229,4.416-12.462,7.659-13.822,6.428s9.892-9.33,11.3-11.049S1112.447,578.181,1105.428,572.633Z" transform="translate(-729.765 -315.084)" fill="#dfebfa"/>
                  <path id="Path_1062" data-name="Path 1062" d="M531.389,830.775a2.608,2.608,0,0,0-4.7-.624,2.37,2.37,0,0,0-.353,1.185c-.064,2.491,4.85,12.137,5.5,12.99,1.189,1.553,8.357,5.289,8.357,5.289l1.523-.222a11.287,11.287,0,0,1-1.752-1.431c-1.842-1.839-4.527-4.829-5.018-5.243C534.106,842.015,532.645,834.81,531.389,830.775Z" transform="translate(-284.702 -527.412)" fill="#e98c94"/>
                  <path id="Path_1063" data-name="Path 1063" d="M544.587,770.151a24.29,24.29,0,0,0-3.656,1.788c-1.65,1.828-1.178,4.216-.235,4.239.606.014.487,1.021.487,1.021l6.744-2.853S547.109,769.612,544.587,770.151Z" transform="translate(-295.819 -478.979)" fill="#093830"/>
                  <path id="Path_1064" data-name="Path 1064" d="M447.286,922.362l-1.461-.216a17.252,17.252,0,0,1-5.637-11.174,13.077,13.077,0,0,1-.035-2.249.39.39,0,0,0-.049-.249h0c-.157-.24-.549-.844-1.078-1.7s-1.413-2.443-2.4-4.239c-1.766-3.229-3.828-7.09-4.534-8.32-2.252-3.92-1.166-6.555-1.166-6.555s6.279-.62,8-2.12l.62.956s1.36,6.023,1.3,6.05c.067.2.134.413.2.627A104.564,104.564,0,0,1,444.032,904a17.841,17.841,0,0,1,.47,4.679,8.362,8.362,0,0,0,.111,1.713C445.219,914.714,447.286,922.362,447.286,922.362Z" transform="translate(-205.931 -574.022)" fill="#117c6f"/>
                  <path id="Path_1065" data-name="Path 1065" d="M513.542,1088.658h-6.087a3.3,3.3,0,0,1,.177-1.632c.306-.675.74-.707.057-1.756a3.712,3.712,0,0,0,2.51.445,7.286,7.286,0,0,0,1.06,1.605C511.647,1087.607,513.42,1087.5,513.542,1088.658Z" transform="translate(-269.129 -738.472)" fill="#093830"/>
                  <path id="Path_1066" data-name="Path 1066" d="M393.991,882.171l.021-1.139c-2.268.286-7.822-2.711-7.822-2.711s-2.374,1.579-2.7,6.087c-.159,2.2-1.162,11.506-1.274,14.285-.039,1.007-.053,1.726-.058,2.014h0a.4.4,0,0,1-.1.235,13.062,13.062,0,0,0-1.236,1.885c-3.462,6.44-1.652,15.191-1.652,15.191l.8-.2s2.927-9.074,4.84-13a8.205,8.205,0,0,1,.867-1.484,17.932,17.932,0,0,0,2.226-4.142,108.384,108.384,0,0,0,3.762-11.278C391.751,887.926,393.991,882.171,393.991,882.171Z" transform="translate(-163.145 -568.077)" fill="#117c6f"/>
                  <path id="Path_1067" data-name="Path 1067" d="M530.783,816.36c-3.709-.851-1.339-6.064-1.125-5.972.514-.1,1.643-1.007,2.65-2.768l.136.118,2.277,2s-.53.777-.968,1.539a3.388,3.388,0,0,0-.6,1.383C533.344,812.81,531.768,816.586,530.783,816.36Z" transform="translate(-286.661 -509.865)" fill="#fff" stroke="#000" stroke-miterlimit="10" stroke-width="0.3"/>
                  <path id="Path_1068" data-name="Path 1068" d="M540.87,860.64l1.917,6.467a3.9,3.9,0,0,0,.818,1.468l2.939,3.3-1.04,2.473-4.082-2.572a4.6,4.6,0,0,1-1.547-1.613l-3.434-6" transform="translate(-293.021 -553.52)" fill="#117c6f"/>
                  <path id="Path_1069" data-name="Path 1069" d="M539.481,835.18a18.631,18.631,0,0,1,1,2.4c.353,1.115,1.217,4.66,1.217,4.66a2.842,2.842,0,1,1-5.161-2.072C537.012,838.271,539.481,835.18,539.481,835.18Z" transform="translate(-293.019 -532.557)" fill="#117c6f"/>
                  <path id="Path_1070" data-name="Path 1070" d="M551.542,792.31s-3.439-1.913-2.213-4.036,1.6-3.8,3.853-2.669,2.2,2.187,1.966,3S552.468,792.753,551.542,792.31Z" transform="translate(-303.415 -491.439)" fill="#fff" stroke="#000" stroke-miterlimit="10" stroke-width="0.3"/>
                  <path id="Path_1071" data-name="Path 1071" d="M554.028,786.016c-.157-.942-.638-1.032-.971-.97a2.749,2.749,0,0,0-3.344-1.281A4.674,4.674,0,0,1,547,785.395a3.255,3.255,0,0,0,2.042,1.2,2.8,2.8,0,0,0,1.623-.129,9.188,9.188,0,0,1-2.333.883c2.166.2,4.227-1.782,4.441-1.994a3.137,3.137,0,0,1,.177,1.413c-.143.638-.707,1.795-.364,1.943C552.583,788.715,554.263,787.431,554.028,786.016Z" transform="translate(-301.715 -490.095)" fill="#093830"/>
                  <path id="Path_1072" data-name="Path 1072" d="M380.307,1088.452h-6.089a3.326,3.326,0,0,1,.177-1.632c.3-.675.781-.982.668-1.8a2.19,2.19,0,0,0,1.9.726,6.51,6.51,0,0,0,1.06,1.369C378.41,1087.4,380.183,1087.3,380.307,1088.452Z" transform="translate(-159.427 -738.266)" fill="#093830"/>
                  <path id="Path_1073" data-name="Path 1073" d="M419.421,829.887a14.917,14.917,0,0,1-3,.544,20.519,20.519,0,0,0-4.121.639,5.54,5.54,0,0,0-1.153.631h0l-.035.025a3.823,3.823,0,0,0-.477.413,2.584,2.584,0,0,0-.558.828c-.318.784.1,2.959.373,4.147a1.081,1.081,0,0,1-.553,1.2q-.915.473-1.795.873l-.094.041c0-.12.009-.24.009-.353a11.106,11.106,0,0,0-.1-1.5,6.292,6.292,0,0,1-1.2,2.409c-8.169,3.278-13.878,1.853-13.778.221.323-5.67,4.146-10.494,4.146-10.494,7.133-8.291,21.55-10.475,21.55-10.475s.691-.083,1.524.919c1.2,1.443,1.259,1.819,1.259,1.819S421.726,829.081,419.421,829.887Z" transform="translate(-174.862 -519.26)" fill="#289c8e"/>
                  <path id="Path_1074" data-name="Path 1074" d="M506.526,843.373a20.516,20.516,0,0,0-4.119.639,16.885,16.885,0,0,1,2.141-9.263S506.176,841.374,506.526,843.373Z" transform="translate(-264.975 -532.203)" fill="#117c6f"/>
                  <path id="Path_1075" data-name="Path 1075" d="M538.39,815.415s.629-.795,1.06-.768c0,0,1.717,2.4,1.731,3.506C541.174,818.157,539.028,815.308,538.39,815.415Z" transform="translate(-294.626 -515.65)" fill="#d0eeeb"/>
                  <path id="Path_1076" data-name="Path 1076" d="M608.587,945.434s-.913.016-1.109-.012a5.783,5.783,0,0,0-.707-.12,2.97,2.97,0,0,0-.731.122.559.559,0,0,1-.108.011h-1.519a.916.916,0,0,1-.32-.339c-.071-.117-.081-.392-.244-.482-.917-.512,1.523-.223,1.523-.223a9.392,9.392,0,0,1,1.673.078A15.474,15.474,0,0,1,608.587,945.434Z" transform="translate(-348.354 -622.409)" fill="#ed985f"/>
                  <path id="Path_1077" data-name="Path 1077" d="M607.886,947.759a6.986,6.986,0,0,1,1.182.442l.267.177s.154-.177-.088-.364a1.167,1.167,0,0,1-.495-.735C608.739,946.939,607.69,947.227,607.886,947.759Z" transform="translate(-351.827 -624.734)" fill="#ed985f"/>
                  <path id="Path_1078" data-name="Path 1078" d="M671.3,961.532h0a3.964,3.964,0,0,1-3.964-3.964V932.54h7.926v25.028a3.964,3.964,0,0,1-3.962,3.964Z" transform="translate(-400.799 -612.719)" fill="#ecf1f9"/>
                  <path id="Path_1079" data-name="Path 1079" d="M676.055,1034.945h0A2.944,2.944,0,0,1,673.11,1032v-8.9H679v8.9A2.943,2.943,0,0,1,676.055,1034.945Z" transform="translate(-405.55 -687.283)" fill="#0d5e52"/>
                  <path id="Path_1080" data-name="Path 1080" d="M734.33,932.54h7.926v25.083a3.907,3.907,0,0,1-3.907,3.907h-.111a3.907,3.907,0,0,1-3.907-3.907V932.54Z" transform="translate(-455.956 -612.719)" fill="#ecf1f9"/>
                  <path id="Path_1081" data-name="Path 1081" d="M740.09,1009.11h5.889v11.413a2.9,2.9,0,0,1-2.9,2.9h-.083a2.9,2.9,0,0,1-2.9-2.9v-11.413Z" transform="translate(-460.698 -675.764)" fill="#0d5e52"/>
                  <path id="Path_1082" data-name="Path 1082" d="M577.979,860.59h0a3.962,3.962,0,0,1-2.109-5.191L585.6,832.34l7.3,3.082-9.731,23.057A3.964,3.964,0,0,1,577.979,860.59Z" transform="translate(-325.228 -530.219)" fill="#ecf1f9"/>
                  <path id="Path_1083" data-name="Path 1083" d="M583.238,892.171l-.56-.235a2.65,2.65,0,0,1-1.413-3.46l7.027-16.636,6.327.152L586.7,890.769A2.65,2.65,0,0,1,583.238,892.171Z" transform="translate(-329.759 -562.741)" fill="#0d5e52"/>
                  <path id="Path_1084" data-name="Path 1084" d="M566.426,949.878s1.06,2.727,3.346,3.545c.489.177,1.079,1.572,1.171,1.779s-.482-.092-.706-.445-.387-.489-.454-.413a2.7,2.7,0,0,0,.422,1.577c.381.535.613,1.01.337.98s-1.913-.429-2.25-1.424a31.06,31.06,0,0,0-3.038-4.884C564.479,949.571,566.426,949.878,566.426,949.878Z" transform="translate(-316.594 -626.959)" fill="#fff" stroke="#000" stroke-miterlimit="10" stroke-width="0.3"/>
                  <path id="Path_1085" data-name="Path 1085" d="M515.166,832.225s.412-6.712-4.734-5.1.8,13.195.8,13.195a4.885,4.885,0,0,0,4.089-2.784Z" transform="translate(-269.881 -525.721)" fill="#289c8e"/>
                  <rect id="Rectangle_298" data-name="Rectangle 298" width="35.967" height="1.113" transform="translate(253.62 345.392)" fill="#d4e4f8"/>
                  <rect id="Rectangle_299" data-name="Rectangle 299" width="1.683" height="3.579" transform="translate(253.62 346.233)" fill="#d4e4f8"/>
                  <rect id="Rectangle_300" data-name="Rectangle 300" width="1.918" height="4.419" transform="translate(287.669 345.392)" fill="#d4e4f8"/>
                  <path id="Path_1086" data-name="Path 1086" d="M897.751,410h56.093a12.011,12.011,0,0,1,12.011,12.011v71.683a12.011,12.011,0,0,1-12.011,12.011H897.751a12.011,12.011,0,0,1-12.011-12.011V422.011A12.011,12.011,0,0,1,897.751,410Z" transform="translate(-580.621 -182.48)" fill="#ecf1f9"/>
                  <rect id="Rectangle_301" data-name="Rectangle 301" width="16.984" height="8.684" transform="translate(336.684 221.235)" fill="#ecf1f9"/>
                  <rect id="Rectangle_302" data-name="Rectangle 302" width="10.551" height="14.926" rx="5.275" transform="translate(339.901 316.722)" fill="#fff"/>
                  <path id="Path_1087" data-name="Path 1087" d="M975.73,430.288v77.178a6.7,6.7,0,0,1-6.7,6.7H942.713a1.328,1.328,0,0,0-1.327,1.328v5a2.879,2.879,0,0,1-2.877,2.879H938.2a2.877,2.877,0,0,1-2.877-2.879v-4.78a1.546,1.546,0,0,0-1.546-1.546H907.695a6.7,6.7,0,0,1-6.695-6.7V430.288a6.7,6.7,0,0,1,6.7-6.7h61.337A6.7,6.7,0,0,1,975.73,430.288Z" transform="translate(-593.186 -193.669)" fill="#117c6f"/>
                  <path id="Path_1088" data-name="Path 1088" d="M975.73,461.51v77.178a6.7,6.7,0,0,1-6.7,6.7H942.713a1.328,1.328,0,0,0-1.327,1.328v5a2.879,2.879,0,0,1-2.877,2.879H938.2a2.877,2.877,0,0,1-2.877-2.879v-4.78a1.546,1.546,0,0,0-1.546-1.546H907.695a6.7,6.7,0,0,1-6.695-6.7V528.9S952.932,507.277,975.73,461.51Z" transform="translate(-593.186 -224.891)" fill="#093830"/>
                  <path id="Path_1089" data-name="Path 1089" d="M1002.474,585.041a23.936,23.936,0,1,1,16.927-7.011A23.936,23.936,0,0,1,1002.474,585.041Zm0-45.673a21.726,21.726,0,1,0,15.367,6.359A21.726,21.726,0,0,0,1002.474,539.368Z" transform="translate(-657.027 -287.184)" fill="#ecf1f9"/>
                  <path id="Path_1090" data-name="Path 1090" d="M1057.442,596.706h-11.557V585.15h-7.809v11.556H1026.52v7.809h11.556v11.557h7.809V604.515h11.557Z" transform="translate(-696.534 -326.692)" fill="#ecf1f9"/>
                  <rect id="Rectangle_303" data-name="Rectangle 303" width="279.12" height="0.853" rx="0.427" transform="translate(183.216 349.723)" fill="#093830"/>
                  <path id="Path_1091" data-name="Path 1091" d="M865.59,1094.152h4.473a10.512,10.512,0,0,0-.353-1.606,4.771,4.771,0,0,0-.253-.645c-.435-.867-3.2-.316-3.2-.316a2.135,2.135,0,0,0-.456,1.06,8.773,8.773,0,0,0-.212,1.507Z" transform="translate(-564.03 -743.529)" fill="#2c2c2c"/>
                  <path id="Path_1092" data-name="Path 1092" d="M909.745,720.09s3.565.625,4.37,2.731,5.359,36.089,5.359,36.089-2.254,1.791-7.094,1.145S909.745,720.09,909.745,720.09Z" transform="translate(-599.973 -437.796)" fill="#289c8e"/>
                  <path id="Path_1093" data-name="Path 1093" d="M942.119,1084.264a2.432,2.432,0,0,0,.309,1.413h8.855a1.527,1.527,0,0,0-1.339-.949,6.759,6.759,0,0,1-3.58-1.657,2.667,2.667,0,0,1-.692-1.256c-.417-1.853-3.443.569-3.443.569A15.022,15.022,0,0,0,942.119,1084.264Z" transform="translate(-627.042 -735.053)" fill="#2c2c2c"/>
                  <path id="Path_1094" data-name="Path 1094" d="M897.76,899.467c-.989.314-2.879,1.279-4.079.825-.777-.292-5.122-12.838-5.394-18.324a13.937,13.937,0,0,0-.223-1.634c-.256-1.413-.706-3.356-1.222-5.509-1.392-5.755-3.266-12.951-3.225-15.247.064-3.57,10.642-.749,10.642-.749a38.394,38.394,0,0,1,.873,7.17c.286,8.419,1.076,22.636,3.224,32.512A.848.848,0,0,1,897.76,899.467Z" transform="translate(-578.872 -551.156)" fill="#0d5e52"/>
                  <path id="Path_1095" data-name="Path 1095" d="M866.812,862.006l-5.592,40.53a10.939,10.939,0,0,1-4.366.12s-1.637-21.55-1.5-26.768-1.175-13.954.3-14.908S866.812,862.006,866.812,862.006Z" transform="translate(-555.265 -553.585)" fill="#0d5e52"/>
                  <path id="Path_1096" data-name="Path 1096" d="M855,719.368s5.877-3.8,10.091-1.857a7.924,7.924,0,0,1,1.987,1.779c1.523,1.678,4.5,28.349,4.5,28.349s-8.454,2.862-16.579-.971Z" transform="translate(-555.311 -435.218)" fill="#ecf1f9"/>
                  <path id="Path_1097" data-name="Path 1097" d="M914,719.55s5.951,2.438,6.756,4.312a114.462,114.462,0,0,1,3.425,14.726c0,1.35-4.561.3-5.3-1.874-.609-1.807-2.665-7.357-3.75-10.868Z" transform="translate(-603.889 -437.352)" fill="#289c8e"/>
                  <path id="Path_1098" data-name="Path 1098" d="M885.543,705.285a6.685,6.685,0,0,1-4.6-.936,13.231,13.231,0,0,0,.98-3.466.329.329,0,0,1,.014-.118,3.614,3.614,0,0,0,.016-.795h3.356s.919.42.919.707v.445q.011.581.042,1.012a9.21,9.21,0,0,0,.177,1.387S886.85,705.029,885.543,705.285Z" transform="translate(-576.669 -421.23)" fill="#fff" stroke="#000" stroke-miterlimit="10" stroke-width="0.3"/>
                  <path id="Path_1099" data-name="Path 1099" d="M878.792,668.125c.454,2.446,3.61,2.365,4.976,2.211.383-.042.625-.092.625-.092.433-.115.673-.8.786-1.69a14.014,14.014,0,0,0-.353-5.025c-.45-1-1.3-2.079-4.476-1.3S878.209,664.989,878.792,668.125Z" transform="translate(-574.374 -389.936)" fill="#fff" stroke="#000" stroke-miterlimit="10" stroke-width="0.3"/>
                  <path id="Path_1100" data-name="Path 1100" d="M875.113,652.785A7.316,7.316,0,0,0,872.921,651a5.309,5.309,0,0,0-4.109.035c-2.6,1.141-3.275,3.128-1.9,6.223,1.457,3.273,2.842,2.9,2.842,2.9s-.293-.177-.267-1.2v-.148a.689.689,0,0,0-.216-.558c-.323-.286-.48-1.157-.21-1.4.327-.291.784.064.931.337a.4.4,0,0,0,.569.125c.809-.51.284-1.533,1.06-2.159s2.339-.1,3.5-.6C876.639,653.988,875.44,653.239,875.113,652.785Z" transform="translate(-564.547 -380.558)" fill="#0d5e52"/>
                  <path id="Path_1101" data-name="Path 1101" d="M858.374,761q-.768.2-1.523.323c-.445.076-.883.131-1.332.177a21.675,21.675,0,0,1-7.995-.982q-1-.286-2.065-.647c-.076-.026.194-7.834.505-15.9.032-.83.065-1.666.1-2.494l.042-1.049c.283-7.124.562-13.555.622-13.9.134-.783.261-1.45.4-2.03a5.135,5.135,0,0,1,1.991-3.409c.106-.081.977-.519,1.745-.9.636-.316,1.2-.592,1.2-.592h0a3.443,3.443,0,0,1,.883,1.519,55.165,55.165,0,0,1,1.655,5.518h0c.283,1.109.486,1.973.542,2.22.1.419.228,1.236.382,2.326.207,1.494.454,3.522.706,5.829.027.237.053.477.08.719.032.276.062.555.094.837.011.09.02.177.03.272.1.911.2,1.851.3,2.809.085.79,1.282,1.362,1.365,2.166.048.472.147,4.828.276,6.218C858.474,751.021,858.409,760.528,858.374,761Z" transform="translate(-547.445 -437.385)" fill="#289c8e"/>
                  <path id="Path_1102" data-name="Path 1102" d="M854.005,775.11c0,.016-.2,7.2,5.2,8.076s1.816,1.1,1.816,1.1-10.173-.431-10.34-.706S854.005,775.11,854.005,775.11Z" transform="translate(-551.752 -483.098)" fill="#0d5e52"/>
                  <path id="Path_1103" data-name="Path 1103" d="M850.935,831.581s-.1.072-.3.2h-.009a25.361,25.361,0,0,1-6.827,2.929q-.562.154-1.16.286c.032-.83.065-1.666.1-2.494a10.5,10.5,0,0,1-1.339-.177l.042-.328c.454-.185.9-.366,1.339-.53.353-.138.7-.27,1.021-.392,1.463-.556,2.549-.933,2.549-.933l4.333,1.372Z" transform="translate(-544.113 -528.407)" fill="#0d5e52"/>
                  <path id="Path_1104" data-name="Path 1104" d="M836.426,740.455s-.558.138-1.445.318h-.009a35.646,35.646,0,0,1-6.836.765c-.362,0-.719-.019-1.06-.046a10.516,10.516,0,0,1-1.339-.177,4.173,4.173,0,0,1-2.141-1.01c-3.651-3.72,1.992-17.067,3.18-18.37,1.385-1.517,3.913-2.049,5.31-2.231l.177-.023c.491-.058.807-.071.823-.071h0s-.109.353-.293.949c-.071.231-.154.5-.244.8-.859,2.809-2.514,8.328-3.243,11.441a8.452,8.452,0,0,0-.353,2.2c.284,1.06,3.234,1.609,5.1,1.851.781.1,1.373.148,1.505.159h.026l.109.443.258,1.06.254,1.044Z" transform="translate(-528.456 -437.401)" fill="#289c8e"/>
                  <path id="Path_1105" data-name="Path 1105" d="M901.079,798.535l-12.54-.528,2.544-15.627,12.54.528Z" transform="translate(-582.926 -489.083)" fill="#0d5e52"/>
                  <path id="Path_1106" data-name="Path 1106" d="M893.864,817.981s2.441-.177,2.565.4c.284,1.327-2.1,2.415-2.872,2.34S893.3,817.893,893.864,817.981Z" transform="translate(-586.735 -518.375)" fill="#fff" stroke="#000" stroke-miterlimit="10" stroke-width="0.3"/>
                  <path id="Path_1107" data-name="Path 1107" d="M957.517,801.49s-2.335-.73-2.586-.2c-.585,1.224,1.482,2.835,2.25,2.943S958.084,801.535,957.517,801.49Z" transform="translate(-637.506 -504.493)" fill="#fff" stroke="#000" stroke-miterlimit="10" stroke-width="0.3"/>
                  <path id="Path_1108" data-name="Path 1108" d="M876.543,715.16a2.906,2.906,0,0,0-1.673.94s3.971,6.953,3.953,6.889S877.525,716.015,876.543,715.16Z" transform="translate(-571.671 -433.737)" fill="#d0eeeb"/>
                  <path id="Path_1109" data-name="Path 1109" d="M911.41,715.69a2.931,2.931,0,0,1,1.132,1.159l.456,5.818s-.973-4.269-1.47-6.2A3.3,3.3,0,0,1,911.41,715.69Z" transform="translate(-601.757 -434.173)" fill="#d0eeeb"/>
                  <path id="Path_1110" data-name="Path 1110" d="M926.47,781.564a.568.568,0,0,1,.669-.383c.571.051,3.778.208,3.778.208s.618-.011.562.385Z" transform="translate(-614.157 -488.092)" fill="#093830"/>
                  <path id="Path_1111" data-name="Path 1111" d="M514.1,866.151l3.022,8.832a3.4,3.4,0,0,0,.687,1.168l6.419,7.117a3.97,3.97,0,0,1,2.506-1.894l-4.741-7.066a4.885,4.885,0,0,1-.445-.825,15.686,15.686,0,0,1-1.13-8.553" transform="translate(-274.627 -557.052)" fill="#289c8e"/>
                  <path id="Path_1112" data-name="Path 1112" d="M518.672,773.864s-3.084,3.764-.945,6.68,1.042-.883,1.042-.883,2.786,6.115-.189,6.942.823-7.989-4.608-7.438c-8.987.91,1.766-11.709,7.262-9.734s2.273,6.873,1.311,7.444,1.139-1.908,1.139-1.908l-.168-1.236-.53-1.247-1.139-.431-2.1,1.13-1.159,1.136-2.65,3.573" transform="translate(-271.676 -478.248)" fill="#093830"/>
                  <path id="Path_1113" data-name="Path 1113" d="M1111.64,818.561v7.159a4.557,4.557,0,0,0,4.555,4.557h48.768a4.555,4.555,0,0,0,4.555-4.557V782.11" transform="translate(-766.619 -488.861)" fill="none" stroke="#fff" stroke-miterlimit="10" stroke-width="4"/>
                  <path id="Path_1114" data-name="Path 1114" d="M1435.588,755.54s8.929,3.709-5.9,14.661c-2.372,1.754-13.8,2.6-13.8,2.6s-.415-1.319.269-1.943c0,0,9.03-3.914,9.946-3.814.813.086,4.51-8.125,6.06-9.791A5.315,5.315,0,0,1,1435.588,755.54Z" transform="translate(-1017.022 -466.984)" fill="#289c8e"/>
                  <path id="Path_1115" data-name="Path 1115" d="M1111.64,818.561v7.159a4.557,4.557,0,0,0,4.555,4.557h48.768a4.555,4.555,0,0,0,4.555-4.557V782.11" transform="translate(-766.619 -488.861)" fill="none" stroke="#117c6f" stroke-miterlimit="10" stroke-width="1"/>
                </g>
              </svg>