<svg xmlns="http://www.w3.org/2000/svg" width="43.344" height="43.328" viewBox="0 0 43.344 43.328">
  <path id="phone" d="M41.709,46.7h-.283C8.679,44.821,4.03,17.19,3.38,8.758a5,5,0,0,1,4.6-5.383h9.183a3.333,3.333,0,0,1,3.1,2.1l2.532,6.233a3.333,3.333,0,0,1-.733,3.6L18.512,18.89A15.615,15.615,0,0,0,31.143,31.556l3.616-3.583a3.333,3.333,0,0,1,3.616-.683l6.282,2.517a3.333,3.333,0,0,1,2.052,3.1v8.8A5,5,0,0,1,41.709,46.7Zm-33.33-40A1.666,1.666,0,0,0,6.713,8.374v.133c.767,9.866,5.682,33.2,34.9,34.863A1.666,1.666,0,0,0,43.377,41.8v-8.9l-6.282-2.517-4.783,4.749-.8-.1c-14.5-1.816-16.465-16.315-16.465-16.465l-.1-.8,4.733-4.783-2.5-6.281Z" transform="translate(-3.364 -3.375)" fill="#4f4d4d"/>
</svg>
