<svg xmlns="http://www.w3.org/2000/svg" width="535" height="345.22" viewBox="0 0 535 345.22">
  <g id="Doctor_in_laptop_screen_reading_disease_history_Converted_-01" data-name="Doctor in laptop screen reading disease history [Converted]-01" transform="translate(-165.085 -166.015)">
    <path id="Path_536" data-name="Path 536" d="M611.421,829.029s53.164-.981,76.4-31.612c39.278-51.771-25.12-95.121-62.656-87.479-81.8,16.657-57.295-149.665-188.565-112.169-36.915,10.543-141.447-69.494-169.268,30.932-6.615,23.88-29.59,52-63.608,67.149C137.15,725.505,167.135,828.595,214.705,829.1S611.421,829.029,611.421,829.029Z" transform="translate(0 -318.834)" fill="#e0f1ef"/>
    <path id="Path_537" data-name="Path 537" d="M1272.517,615.27l-78.356-30.255a20.463,20.463,0,0,1-11.718-26.459l90.788-235.127a20.461,20.461,0,0,1,26.459-11.718l78.356,30.254a20.463,20.463,0,0,1,11.718,26.459l-90.788,235.125A20.461,20.461,0,0,1,1272.517,615.27Z" transform="translate(-787.292 -111.832)" fill="#b2f0eb"/>
    <circle id="Ellipse_139" data-name="Ellipse 139" cx="14.491" cy="14.491" r="14.491" transform="translate(488.619 247.017) rotate(-45)" fill="#2fc4b2"/>
    <path id="Path_538" data-name="Path 538" d="M1636.449,454.343a14.5,14.5,0,1,0,5.218.977A14.5,14.5,0,0,0,1636.449,454.343Zm0-2.073a16.571,16.571,0,1,1-9.267,2.836A16.572,16.572,0,0,1,1636.449,452.27Z" transform="translate(-1127.334 -221.822)" fill="#2fc4b2"/>
    <path id="Path_539" data-name="Path 539" d="M1661.075,477.818c-2.793,1.236-5.627.93-6.354-.675s.968-3.932,3.761-5.177,5.627-.93,6.354.687S1663.868,476.58,1661.075,477.818Z" transform="translate(-1154.202 -236.494)" fill="#fff" opacity="0.6"/>
    <circle id="Ellipse_140" data-name="Ellipse 140" cx="14.491" cy="14.491" r="14.491" transform="translate(543.668 257.178) rotate(-15.52)" fill="#2fc4b2"/>
    <path id="Path_540" data-name="Path 540" d="M1869.231,544.225a14.5,14.5,0,1,0,5.215.975A14.5,14.5,0,0,0,1869.231,544.225Zm0-2.075a16.571,16.571,0,1,1-9.269,2.836A16.572,16.572,0,0,1,1869.231,542.15Z" transform="translate(-1307.718 -291.471)" fill="#2fc4b2"/>
    <path id="Path_541" data-name="Path 541" d="M1893.854,567.653c-2.793,1.238-5.627.93-6.354-.687s.968-3.93,3.764-5.177,5.627-.93,6.354.675S1896.65,566.422,1893.854,567.653Z" transform="translate(-1334.585 -306.098)" fill="#fff" opacity="0.6"/>
    <circle id="Ellipse_141" data-name="Ellipse 141" cx="14.491" cy="14.491" r="14.491" transform="translate(468.481 323.187) rotate(-83.15)" fill="#2fc4b2"/>
    <path id="Path_542" data-name="Path 542" d="M1527.519,736.483a14.5,14.5,0,1,0,5.218.977,14.5,14.5,0,0,0-5.218-.977Zm0-2.073a16.562,16.562,0,1,1-9.267,2.834A16.561,16.561,0,0,1,1527.519,734.41Z" transform="translate(-1042.926 -440.455)" fill="#2fc4b2"/>
    <path id="Path_543" data-name="Path 543" d="M1552.134,759.9c-2.793,1.238-5.627.93-6.354-.687s.968-3.93,3.761-5.177,5.627-.93,6.357.675S1554.928,758.667,1552.134,759.9Z" transform="translate(-1069.783 -455.074)" fill="#fff" opacity="0.6"/>
    <circle id="Ellipse_142" data-name="Ellipse 142" cx="14.491" cy="14.491" r="14.491" transform="matrix(0.914, -0.405, 0.405, 0.914, 517.868, 323.354)" fill="#2fc4b2"/>
    <path id="Path_544" data-name="Path 544" d="M1760.293,826.363a14.5,14.5,0,1,0,5.215.977A14.5,14.5,0,0,0,1760.293,826.363Zm0-2.073a16.569,16.569,0,1,1-9.267,2.834A16.569,16.569,0,0,1,1760.293,824.29Z" transform="translate(-1223.301 -510.104)" fill="#2fc4b2"/>
    <path id="Path_545" data-name="Path 545" d="M1784.93,849.841c-2.8,1.236-5.641.93-6.357-.689s.97-3.93,3.764-5.166,5.638-.93,6.354.675S1787.723,848.6,1784.93,849.841Z" transform="translate(-1250.18 -524.778)" fill="#fff" opacity="0.6"/>
    <circle id="Ellipse_143" data-name="Ellipse 143" cx="14.491" cy="14.491" r="14.491" transform="translate(444.647 360.07) rotate(-5.26)" fill="#00a3fe"/>
    <path id="Path_546" data-name="Path 546" d="M1420.019,1014.863a14.5,14.5,0,1,0,5.218.977,14.5,14.5,0,0,0-5.218-.977Zm0-2.073a16.562,16.562,0,1,1-9.267,2.834A16.562,16.562,0,0,1,1420.019,1012.79Z" transform="translate(-959.623 -656.174)" fill="#fff"/>
    <path id="Path_547" data-name="Path 547" d="M1444.634,1038.317c-2.793,1.238-5.627.93-6.354-.687s.968-3.93,3.761-5.177,5.627-.93,6.357.689S1447.428,1037.081,1444.634,1038.317Z" transform="translate(-986.48 -670.82)" fill="#fff" opacity="0.6"/>
    <circle id="Ellipse_144" data-name="Ellipse 144" cx="14.491" cy="14.491" r="14.491" transform="translate(494.944 383.354) rotate(-15.52)" fill="#2fc4b2"/>
    <path id="Path_548" data-name="Path 548" d="M1652.783,1104.773a14.5,14.5,0,1,0,5.215.977A14.5,14.5,0,0,0,1652.783,1104.773Zm0-2.073a16.578,16.578,0,1,1-9.267,2.836,16.578,16.578,0,0,1,9.267-2.836Z" transform="translate(-1139.988 -725.846)" fill="#2fc4b2"/>
    <ellipse id="Ellipse_145" data-name="Ellipse 145" cx="5.533" cy="3.201" rx="5.533" ry="3.201" transform="matrix(0.914, -0.405, 0.405, 0.914, 502.904, 384.096)" fill="#fff" opacity="0.6"/>
    <circle id="Ellipse_146" data-name="Ellipse 146" cx="14.491" cy="14.491" r="14.491" transform="translate(419.121 424.615) rotate(-10.94)" fill="#00a3fe"/>
    <path id="Path_549" data-name="Path 549" d="M1312.159,1294.233a14.5,14.5,0,1,0,5.218.977,14.5,14.5,0,0,0-5.218-.977Zm0-2.073a16.562,16.562,0,1,1-9.267,2.834A16.562,16.562,0,0,1,1312.159,1292.16Z" transform="translate(-876.041 -872.661)" fill="#fff"/>
    <path id="Path_550" data-name="Path 550" d="M1336.774,1317.656c-2.794,1.236-5.627.929-6.354-.689s.968-3.93,3.761-5.177,5.627-.93,6.356.675S1339.568,1316.422,1336.774,1317.656Z" transform="translate(-902.898 -887.28)" fill="#fff" opacity="0.6"/>
    <circle id="Ellipse_147" data-name="Ellipse 147" cx="14.491" cy="14.491" r="14.491" transform="matrix(0.257, -0.966, 0.966, 0.257, 470.764, 466.548)" fill="#00a3fe"/>
    <path id="Path_551" data-name="Path 551" d="M1544.943,1384.082a14.5,14.5,0,1,0,5.215.977A14.5,14.5,0,0,0,1544.943,1384.082Zm0-2.073a5.069,5.069,0,1,1,0-.009Z" transform="translate(-1056.422 -942.279)" fill="#fff"/>
    <ellipse id="Ellipse_148" data-name="Ellipse 148" cx="5.533" cy="3.201" rx="5.533" ry="3.201" transform="matrix(0.914, -0.405, 0.405, 0.914, 478.627, 446.972)" fill="#fff" opacity="0.6"/>
    <path id="Path_552" data-name="Path 552" d="M1455.783,728.654h0a1.35,1.35,0,0,1-.772-1.742l83.284-215.689a1.35,1.35,0,0,1,1.742-.772h0a1.35,1.35,0,0,1,.772,1.745l-83.283,215.686A1.351,1.351,0,0,1,1455.783,728.654Z" transform="translate(-999.506 -266.837)" fill="#117c6f"/>
    <path id="Path_553" data-name="Path 553" d="M1633.941,663.843h0a1.351,1.351,0,0,1,1.742-.772l51.771,19.988a1.351,1.351,0,0,1,.772,1.742h0a1.351,1.351,0,0,1-1.742.772l-51.771-19.988A1.35,1.35,0,0,1,1633.941,663.843Z" transform="translate(-1138.161 -385.104)" fill="#117c6f"/>
    <path id="Path_554" data-name="Path 554" d="M1526.081,943.183h0a1.351,1.351,0,0,1,1.742-.772l51.771,19.988a1.351,1.351,0,0,1,.772,1.744h0a1.351,1.351,0,0,1-1.742.772l-51.771-19.99A1.351,1.351,0,0,1,1526.081,943.183Z" transform="translate(-1054.579 -601.567)" fill="#117c6f"/>
    <path id="Path_555" data-name="Path 555" d="M1417.861,1223.453h0a1.35,1.35,0,0,1,1.742-.772l51.771,19.99a1.35,1.35,0,0,1,.772,1.742h0a1.35,1.35,0,0,1-1.742.772l-51.771-19.99A1.35,1.35,0,0,1,1417.861,1223.453Z" transform="translate(-970.718 -818.751)" fill="#657285"/>
    <path id="Path_556" data-name="Path 556" d="M691.1,664.2h0a27.821,27.821,0,0,1-35.789-16.053L566.555,415a27.822,27.822,0,0,1,16.051-35.789h0A27.821,27.821,0,0,1,618.4,395.268l88.76,233.142A27.82,27.82,0,0,1,691.1,664.2Z" transform="translate(-309.703 -163.812)" fill="#289c8e"/>
    <path id="Path_557" data-name="Path 557" d="M583.079,226.089a5.58,5.58,0,1,1-10.429,3.971l-8.3-21.807L551.191,173.7a5.6,5.6,0,0,1,3.23-7.2l.034-.013a5.6,5.6,0,0,1,7.165,3.241L574.8,204.366Z" transform="translate(-298.916 -0.089)" fill="#289c8e"/>
    <path id="Path_558" data-name="Path 558" d="M575.142,204.239l-10.455,3.9L551.53,173.579a5.6,5.6,0,0,1,3.228-7.2l.036-.013a5.6,5.6,0,0,1,7.165,3.25Z" transform="translate(-299.178 0)" fill="#083a33"/>
    <rect id="Rectangle_283" data-name="Rectangle 283" width="55.685" height="30.518" transform="matrix(0.937, -0.349, 0.349, 0.937, 322.232, 424.462)" fill="#131f2d"/>
    <rect id="Rectangle_284" data-name="Rectangle 284" width="11.93" height="0.696" transform="matrix(0.937, -0.349, 0.349, 0.937, 281.265, 251.899)" fill="#d5d6da"/>
    <rect id="Rectangle_285" data-name="Rectangle 285" width="11.966" height="0.698" transform="matrix(0.937, -0.349, 0.349, 0.937, 283.317, 256.169)" fill="#d5d6da"/>
    <rect id="Rectangle_286" data-name="Rectangle 286" width="11.93" height="0.696" transform="matrix(0.937, -0.349, 0.349, 0.937, 284.261, 259.936)" fill="#d5d6da"/>
    <rect id="Rectangle_287" data-name="Rectangle 287" width="11.93" height="0.696" transform="matrix(0.937, -0.349, 0.349, 0.937, 285.759, 263.952)" fill="#d5d6da"/>
    <rect id="Rectangle_288" data-name="Rectangle 288" width="11.966" height="0.698" transform="matrix(0.937, -0.349, 0.349, 0.937, 287.833, 268.254)" fill="#d5d6da"/>
    <rect id="Rectangle_289" data-name="Rectangle 289" width="32.386" height="1.432" transform="matrix(0.937, -0.349, 0.349, 0.937, 279.226, 275.719)" fill="#d5d6da"/>
    <rect id="Rectangle_290" data-name="Rectangle 290" width="11.93" height="0.696" transform="matrix(0.937, -0.349, 0.349, 0.937, 290.568, 276.858)" fill="#d5d6da"/>
    <rect id="Rectangle_291" data-name="Rectangle 291" width="11.93" height="0.696" transform="matrix(0.937, -0.349, 0.349, 0.937, 292.066, 280.876)" fill="#d5d6da"/>
    <rect id="Rectangle_292" data-name="Rectangle 292" width="11.93" height="0.696" transform="matrix(0.937, -0.349, 0.349, 0.937, 293.562, 284.895)" fill="#d5d6da"/>
    <rect id="Rectangle_293" data-name="Rectangle 293" width="11.93" height="0.696" transform="matrix(0.937, -0.349, 0.349, 0.937, 295.062, 288.913)" fill="#d5d6da"/>
    <rect id="Rectangle_294" data-name="Rectangle 294" width="11.93" height="0.696" transform="matrix(0.937, -0.349, 0.349, 0.937, 296.557, 292.929)" fill="#d5d6da"/>
    <rect id="Rectangle_295" data-name="Rectangle 295" width="11.93" height="0.696" transform="matrix(0.937, -0.349, 0.349, 0.937, 301.039, 304.952)" fill="#d5d6da"/>
    <rect id="Rectangle_296" data-name="Rectangle 296" width="11.93" height="0.696" transform="matrix(0.937, -0.349, 0.349, 0.937, 302.537, 308.971)" fill="#d5d6da"/>
    <rect id="Rectangle_297" data-name="Rectangle 297" width="11.93" height="0.696" transform="matrix(0.937, -0.349, 0.349, 0.937, 304.032, 312.99)" fill="#d5d6da"/>
    <rect id="Rectangle_298" data-name="Rectangle 298" width="11.93" height="0.696" transform="matrix(0.937, -0.349, 0.349, 0.937, 305.532, 317.008)" fill="#d5d6da"/>
    <rect id="Rectangle_299" data-name="Rectangle 299" width="11.93" height="0.696" transform="matrix(0.937, -0.349, 0.349, 0.937, 307.028, 321.026)" fill="#d5d6da"/>
    <rect id="Rectangle_300" data-name="Rectangle 300" width="32.386" height="1.432" transform="matrix(0.937, -0.349, 0.349, 0.937, 299.002, 328.774)" fill="#d5d6da"/>
    <rect id="Rectangle_301" data-name="Rectangle 301" width="11.966" height="0.698" transform="matrix(0.937, -0.349, 0.349, 0.937, 312.283, 333.699)" fill="#d5d6da"/>
    <rect id="Rectangle_302" data-name="Rectangle 302" width="11.93" height="0.693" transform="matrix(0.937, -0.349, 0.349, 0.937, 313.08, 337.262)" fill="#d5d6da"/>
    <rect id="Rectangle_303" data-name="Rectangle 303" width="11.93" height="0.696" transform="matrix(0.937, -0.349, 0.349, 0.937, 314.577, 341.278)" fill="#d5d6da"/>
    <rect id="Rectangle_304" data-name="Rectangle 304" width="11.93" height="0.696" transform="matrix(0.937, -0.349, 0.349, 0.937, 316.075, 345.296)" fill="#d5d6da"/>
    <rect id="Rectangle_305" data-name="Rectangle 305" width="11.93" height="0.696" transform="matrix(0.937, -0.349, 0.349, 0.937, 317.574, 349.315)" fill="#d5d6da"/>
    <rect id="Rectangle_306" data-name="Rectangle 306" width="32.386" height="1.432" transform="matrix(0.937, -0.349, 0.349, 0.937, 309.543, 357.065)" fill="#d5d6da"/>
    <rect id="Rectangle_307" data-name="Rectangle 307" width="11.93" height="0.693" transform="matrix(0.937, -0.349, 0.349, 0.937, 321.989, 361.17)" fill="#d5d6da"/>
    <rect id="Rectangle_308" data-name="Rectangle 308" width="11.966" height="0.698" transform="matrix(0.937, -0.349, 0.349, 0.937, 324.248, 365.732)" fill="#d5d6da"/>
    <rect id="Rectangle_309" data-name="Rectangle 309" width="11.966" height="0.698" transform="matrix(0.937, -0.349, 0.349, 0.937, 325.751, 369.761)" fill="#d5d6da"/>
    <rect id="Rectangle_310" data-name="Rectangle 310" width="11.93" height="0.696" transform="matrix(0.937, -0.349, 0.349, 0.937, 326.485, 373.225)" fill="#d5d6da"/>
    <rect id="Rectangle_311" data-name="Rectangle 311" width="11.93" height="0.696" transform="matrix(0.937, -0.349, 0.349, 0.937, 327.981, 377.243)" fill="#d5d6da"/>
    <rect id="Rectangle_312" data-name="Rectangle 312" width="32.386" height="1.432" transform="matrix(0.937, -0.349, 0.349, 0.937, 319.953, 384.994)" fill="#d5d6da"/>
    <rect id="Rectangle_313" data-name="Rectangle 313" width="11.93" height="0.696" transform="matrix(0.937, -0.349, 0.349, 0.937, 332.656, 389.785)" fill="#d5d6da"/>
    <rect id="Rectangle_314" data-name="Rectangle 314" width="11.93" height="0.696" transform="matrix(0.937, -0.349, 0.349, 0.937, 334.155, 393.803)" fill="#d5d6da"/>
    <rect id="Rectangle_315" data-name="Rectangle 315" width="11.93" height="0.696" transform="matrix(0.937, -0.349, 0.349, 0.937, 335.651, 397.824)" fill="#d5d6da"/>
    <rect id="Rectangle_316" data-name="Rectangle 316" width="11.93" height="0.696" transform="matrix(0.937, -0.349, 0.349, 0.937, 337.148, 401.84)" fill="#d5d6da"/>
    <rect id="Rectangle_317" data-name="Rectangle 317" width="11.966" height="0.698" transform="matrix(0.937, -0.349, 0.349, 0.937, 339.481, 406.513)" fill="#d5d6da"/>
    <rect id="Rectangle_318" data-name="Rectangle 318" width="32.386" height="1.432" transform="matrix(0.937, -0.349, 0.349, 0.937, 330.616, 413.609)" fill="#d5d6da"/>
    <path id="Path_559" data-name="Path 559" d="M708.271,665.016h0a20.943,20.943,0,0,1-26.86-12.272L589.495,406.153a20.944,20.944,0,0,1,12.274-26.86h0a20.944,20.944,0,0,1,26.853,12.272l91.923,246.591A20.95,20.95,0,0,1,708.271,665.016Z" transform="translate(-327.865 -164.259)" fill="#2fc4b2" opacity="0.15"/>
    <path id="Path_560" data-name="Path 560" d="M823.489,719.689a1.468,1.468,0,1,1,1.886.862A1.468,1.468,0,0,1,823.489,719.689Z" transform="translate(-510.131 -427.512)" fill="#083a33"/>
    <rect id="Rectangle_319" data-name="Rectangle 319" width="20.06" height="1.432" transform="matrix(0.937, -0.349, 0.349, 0.937, 289.985, 300.14)" fill="#083a33"/>
    <path id="Path_561" data-name="Path 561" d="M667.532,439.48l72.891,195.536a1.576,1.576,0,0,1-2.949,1.1L664.584,440.581a1.576,1.576,0,0,1,2.949-1.1Z" transform="translate(-387.008 -211.172)" fill="#d5d6da"/>
    <path id="Path_562" data-name="Path 562" d="M667.532,439.48l23.25,62.373-2.949,1.1-23.25-62.37a1.576,1.576,0,0,1,2.949-1.1Z" transform="translate(-387.008 -211.172)" fill="#083a33"/>
    <rect id="Rectangle_320" data-name="Rectangle 320" width="65.789" height="53.184" rx="21.4" transform="translate(593.863 505.146) rotate(180)" fill="#289c8e"/>
    <rect id="Rectangle_321" data-name="Rectangle 321" width="65.789" height="53.184" rx="26.592" transform="translate(544.69 451.962)" fill="#2fc4b2"/>
    <path id="Path_563" data-name="Path 563" d="M1938.043,1501.389h6.5v-6.5a3.9,3.9,0,0,1,3.9-3.9h0a3.9,3.9,0,0,1,3.9,3.9v6.5h6.5a3.9,3.9,0,0,1,3.9,3.9h0a3.9,3.9,0,0,1-3.9,3.9h-6.5v6.5a3.9,3.9,0,0,1-3.9,3.9h0a3.9,3.9,0,0,1-3.9-3.9v-6.5h-6.5a3.9,3.9,0,0,1-3.9-3.9h0A3.9,3.9,0,0,1,1938.043,1501.389Z" transform="translate(-1370.857 -1026.736)" fill="#0d4c41"/>
    <path id="Path_564" data-name="Path 564" d="M588.764,981.53H820.383a5.2,5.2,0,0,1,4.9,3.454l56.029,156.95H639.752a4.094,4.094,0,0,1-3.854-2.714L582.7,990.151a6.449,6.449,0,0,1,6.062-8.621Z" transform="translate(-323.324 -631.951)" fill="#0d4c41"/>
    <path id="Path_565" data-name="Path 565" d="M664.205,1026.07h216.8a3.052,3.052,0,0,1,2.874,2.026l47.12,132.43a3.05,3.05,0,0,1-2.872,4.072H711.317a3.055,3.055,0,0,1-2.874-2.026l-47.109-132.43a3.05,3.05,0,0,1,2.872-4.072Z" transform="translate(-384.411 -666.465)" fill="#f4f4f4"/>
    <path id="Path_566" data-name="Path 566" d="M588.764,981.53l56.289,157.689a4.094,4.094,0,0,0,3.854,2.714h-9.154a4.094,4.094,0,0,1-3.854-2.714L582.7,990.151a6.449,6.449,0,0,1,6.077-8.621Z" transform="translate(-323.324 -631.951)" fill="#083a33"/>
    <path id="Path_567" data-name="Path 567" d="M823.321,1665.187h327.115a4.214,4.214,0,0,0,4.214-4.214h0a4.214,4.214,0,0,0-4.214-4.214H823.321a4.214,4.214,0,0,0-4.211,4.214h0A4.214,4.214,0,0,0,823.321,1665.187Z" transform="translate(-506.81 -1155.193)" fill="#0d4c41"/>
    <path id="Path_568" data-name="Path 568" d="M823.321,1656.76h107.69a4.214,4.214,0,0,1,4.214,4.214h0a4.214,4.214,0,0,1-4.214,4.214H823.321a4.214,4.214,0,0,1-4.211-4.214h0A4.214,4.214,0,0,1,823.321,1656.76Z" transform="translate(-506.81 -1155.193)" fill="#083a33"/>
    <path id="Path_569" data-name="Path 569" d="M1294.654,754.877c-10.545,3.327-28.794-5.654-28.794-5.654s8.227-6.174,9.148-18.984c.016-.176.027-.351.034-.529.054-.95.068-1.938.034-2.96l2.888,2.325,10.8,8.711s-.554,4.295-.776,11.453a22.549,22.549,0,0,1,4.124,2.9,16.483,16.483,0,0,1,2.539,2.739Z" transform="translate(-853.001 -434.519)" fill="#fff" stroke="#231f20" stroke-miterlimit="10" stroke-width="2"/>
    <path id="Path_570" data-name="Path 570" d="M1205.7,998.263H1155.33s5.852-85.955,7.525-106.88c1.35-16.972,4.229-57.664,5.265-72.436.241-3.442.385-5.479.385-5.479l12.024-2.048,20.645,26.77s3.268,71.392,3.151,82.644,1.3,55.1,1.371,62.467S1205.7,998.263,1205.7,998.263Z" transform="translate(-767.35 -500.131)" fill="#289c8e"/>
    <path id="Path_571" data-name="Path 571" d="M1359.05,849.994l4.518,160.071H1387.3s-1.1-105.279-1.177-114.951,2.58-51.341-4.828-57.808c-6.19-5.4-21.089-10.656-21.089-10.656Z" transform="translate(-925.215 -511.933)" fill="#289c8e"/>
    <path id="Path_572" data-name="Path 572" d="M1360.358,810.24s6.766,4.662,6.512,6.336a31.231,31.231,0,0,1-1.184,4.319l-4.137-.84,3.491,2.458s-3.961,11.549-5.99,14.764Z" transform="translate(-925.215 -499.216)" fill="#2fc4b2"/>
    <path id="Path_573" data-name="Path 573" d="M1165.284,1001.454c2.962-18.205,37.192,8.7,34.347,32.577-5.265,44.181-27.686,93.44-44.3,106.85Z" transform="translate(-767.35 -642.75)" fill="#117c6f"/>
    <path id="Path_574" data-name="Path 574" d="M1324.14,677.164s-18.813-.527-18.3-12.236-1.576-19.664,10.455-19.821,14.181,4.409,14.951,8.36S1329.049,677,1324.14,677.164Z" transform="translate(-883.97 -371.25)" fill="#fff" stroke="#231f20" stroke-miterlimit="10" stroke-width="2"/>
    <path id="Path_575" data-name="Path 575" d="M1285.7,632.219a4.339,4.339,0,0,0,4.389-1.94c1.94-2.586,5.177-12.547,9.44-13.193s9.9,2.523,11.7.711c2.645-2.638,6.057-6.958,6.057-6.958s-21.172-15.095-29.622-8.1S1276.269,619.932,1285.7,632.219Z" transform="translate(-863.847 -336.988)" fill="#083a33"/>
    <path id="Path_576" data-name="Path 576" d="M1360.453,1090.315a265.214,265.214,0,0,1-1.177-30.3c.2-5.92.031-12.882-.131-19.614-.225-9.6-.747-18.849.029-24.879,1.328-10.318,1.062-57.223.518-62.305a40.432,40.432,0,0,1,.468-12.031c.493-1.639-1.645-10.818-1.67-10.91l.252-.065c.1.383,2.413,9.391,1.891,11.131a37.5,37.5,0,0,0-.675,11.849c.545,5.087,1.589,51.982.259,62.309a182.9,182.9,0,0,0-.8,24.9c.162,6.737.331,13.7.13,19.63-.468,14,1.906,30.128,1.925,30.29Z" transform="translate(-924.781 -592.182)" fill="#117c6f"/>
    <path id="Path_577" data-name="Path 577" d="M1525.974,1069.46s6.372,10.973-.311,13.859-7.4-.155-7.4-.155Z" transform="translate(-1048.588 -700.088)" fill="#289c8e"/>
    <path id="Path_578" data-name="Path 578" d="M1370.86,1008.426a1.254,1.254,0,1,1,.366.888A1.256,1.256,0,0,1,1370.86,1008.426Z" transform="translate(-934.366 -651.819)" fill="#117c6f"/>
    <path id="Path_579" data-name="Path 579" d="M1370.86,1320.668a1.256,1.256,0,1,1,1.254,1.254A1.256,1.256,0,0,1,1370.86,1320.668Z" transform="translate(-934.366 -893.777)" fill="#117c6f"/>
    <path id="Path_580" data-name="Path 580" d="M1373.67,1177.978a1.254,1.254,0,1,1,.368.887,1.256,1.256,0,0,1-.368-.887Z" transform="translate(-936.544 -783.205)" fill="#117c6f"/>
    <path id="Path_581" data-name="Path 581" d="M1373.67,1456.376a1.253,1.253,0,1,1,.367.889,1.256,1.256,0,0,1-.367-.889Z" transform="translate(-936.544 -998.94)" fill="#117c6f"/>
    <path id="Path_582" data-name="Path 582" d="M1312,840.65s4.349,2.141,11.378.815l-.79,19.378Z" transform="translate(-888.755 -522.781)" fill="#083a33"/>
    <path id="Path_583" data-name="Path 583" d="M1396.33,943.666l-40.7-3.646-22.442,45.561.275.565,22.444-45.56,40.7,3.646Z" transform="translate(-905.175 -599.784)" fill="#131f2d"/>
    <path id="Path_584" data-name="Path 584" d="M545.825,1167.56s54.879.284,91.587,16.99c0,0-5.492,88.073-66,101.541C571.416,1286.09,520.048,1255.559,545.825,1167.56Z" transform="translate(-289.431 -776.107)" fill="#d0eeeb"/>
    <path id="Path_585" data-name="Path 585" d="M576.151,1197s49.882,2.724,78.469,14.458c0,0-2.96,71.8-55.822,88.816C598.8,1300.274,557.039,1279.667,576.151,1197Z" transform="translate(-314.659 -798.92)" fill="#2fc4b2"/>
    <path id="Path_586" data-name="Path 586" d="M684.774,1313.864l-14.6-2.69,2.625-14.239-13.373-2.465-2.622,14.239-13.879-2.557-2.465,13.373,13.879,2.557-2.625,14.239,13.373,2.465,2.622-14.239,14.6,2.69Z" transform="translate(-368.372 -874.451)" fill="#0d4c41"/>
    <rect id="Rectangle_322" data-name="Rectangle 322" width="15.851" height="9.238" transform="translate(411.533 346.115)" fill="#083a33"/>
    <rect id="Rectangle_323" data-name="Rectangle 323" width="1.796" height="3.318" transform="translate(418.561 344.076)" fill="#083a33"/>
    <rect id="Rectangle_324" data-name="Rectangle 324" width="0.155" height="9.238" transform="translate(411.482 346.115)" fill="#2c3a64"/>
    <rect id="Rectangle_325" data-name="Rectangle 325" width="3.653" height="4.639" transform="translate(412.733 348.812)" fill="#e0f1ef"/>
    <rect id="Rectangle_326" data-name="Rectangle 326" width="9.175" height="1.002" transform="translate(417.01 348.812)" fill="#e0f1ef"/>
    <rect id="Rectangle_327" data-name="Rectangle 327" width="9.175" height="1.002" transform="translate(417.01 350.631)" fill="#e0f1ef"/>
    <rect id="Rectangle_328" data-name="Rectangle 328" width="9.175" height="1.002" transform="translate(417.01 352.449)" fill="#e0f1ef"/>
    <rect id="Rectangle_329" data-name="Rectangle 329" width="74.332" height="39.643" rx="8.65" transform="translate(628.235 389.195) rotate(180)" fill="#d0eeeb"/>
    <path id="Path_587" data-name="Path 587" d="M2070.855,1021.7c5.364-.9,8.251,4.679,8.251,4.679s2.888-5.591,8.25-4.679,6.91,6.278,5.467,10.044-13.717,13.692-13.717,13.692-12.274-9.929-13.73-13.692S2065.491,1022.618,2070.855,1021.7Z" transform="translate(-1472.154 -663.004)" fill="#2fc4b2"/>
    <path id="Path_588" data-name="Path 588" d="M2095.854,1059.7l.5-4.2h-4.387v-2.345l-2.287,6.523V1055.1h-2.325l-1.488,4.344-1.121-6.633-1.688,3.365-.227-.115,2.039-4.058,1.081,6.413,1.224-3.57h2.757v3.338l2.289-6.523v3.583h4.42l-.349,2.915,2.958-6.325v3.3h2.647v1.8l1.092-2.544.234.1-1.58,3.682v-2.78H2099v-2.413Z" transform="translate(-1486.079 -686.295)" fill="#eaeaea"/>
    <path id="Path_589" data-name="Path 589" d="M1922.792,1030.217h24.832a1.227,1.227,0,0,0,1.222-1.225h0a1.225,1.225,0,0,0-1.222-1.222h-24.832a1.227,1.227,0,0,0-1.222,1.222h0A1.229,1.229,0,0,0,1922.792,1030.217Z" transform="translate(-1361.117 -667.782)" fill="#117c6f"/>
    <path id="Path_590" data-name="Path 590" d="M1922.792,1052.717h24.832a1.227,1.227,0,0,0,1.222-1.224h0a1.225,1.225,0,0,0-1.222-1.222h-24.832a1.227,1.227,0,0,0-1.222,1.222h0A1.229,1.229,0,0,0,1922.792,1052.717Z" transform="translate(-1361.117 -685.218)" fill="#117c6f"/>
    <path id="Path_591" data-name="Path 591" d="M1922.792,1077.727h24.832a1.226,1.226,0,0,0,1.222-1.224h0a1.227,1.227,0,0,0-1.223-1.222h-24.832a1.227,1.227,0,0,0-1.222,1.222h0A1.229,1.229,0,0,0,1922.792,1077.727Z" transform="translate(-1361.117 -704.598)" fill="#117c6f"/>
    <path id="Path_592" data-name="Path 592" d="M1922.792,1102.737h24.832a1.224,1.224,0,0,0,1.222-1.222h0a1.227,1.227,0,0,0-1.223-1.225h-24.832a1.229,1.229,0,0,0-1.222,1.224h0A1.227,1.227,0,0,0,1922.792,1102.737Z" transform="translate(-1361.117 -723.979)" fill="#117c6f"/>
    <rect id="Rectangle_330" data-name="Rectangle 330" width="75.061" height="39.643" rx="8.69" transform="translate(407.889 243.445) rotate(180)" fill="#d0eeeb"/>
    <path id="Path_593" data-name="Path 593" d="M971.962,382.7h24.832a1.227,1.227,0,0,0,1.222-1.222h0a1.229,1.229,0,0,0-1.222-1.224H971.962a1.227,1.227,0,0,0-1.222,1.224h0A1.224,1.224,0,0,0,971.962,382.7Z" transform="translate(-624.31 -166.013)" fill="#117c6f"/>
    <path id="Path_594" data-name="Path 594" d="M971.962,405.2h24.832a1.227,1.227,0,0,0,1.222-1.222h0a1.227,1.227,0,0,0-1.222-1.222H971.962a1.224,1.224,0,0,0-1.222,1.222h0A1.224,1.224,0,0,0,971.962,405.2Z" transform="translate(-624.31 -183.456)" fill="#117c6f"/>
    <path id="Path_595" data-name="Path 595" d="M971.962,430.217h24.832a1.229,1.229,0,0,0,1.222-1.224h0a1.227,1.227,0,0,0-1.222-1.222H971.962a1.225,1.225,0,0,0-1.222,1.222h0A1.227,1.227,0,0,0,971.962,430.217Z" transform="translate(-624.31 -202.837)" fill="#117c6f"/>
    <path id="Path_596" data-name="Path 596" d="M971.962,455.227h24.832A1.229,1.229,0,0,0,998.017,454h0a1.227,1.227,0,0,0-1.222-1.222H971.962A1.227,1.227,0,0,0,970.74,454h0A1.227,1.227,0,0,0,971.962,455.227Z" transform="translate(-624.31 -222.217)" fill="#117c6f"/>
    <path id="Path_597" data-name="Path 597" d="M1141.983,376.074c.574,2.688-.02,7.293-6.032,9.188s-10.444-2.818-10.946-7.464,9.1-21.8,9.1-21.8S1140.833,370.689,1141.983,376.074Z" transform="translate(-743.836 -147.221)" fill="#2fc4b2"/>
    <path id="Path_598" data-name="Path 598" d="M1145.252,432.084h2.652v-2.652a.772.772,0,1,1,1.544,0v2.652h2.652a.772.772,0,1,1,0,1.544h-2.652v2.652a.772.772,0,0,1-1.544,0v-2.652h-2.652a.772.772,0,1,1,0-1.544Z" transform="translate(-758.942 -203.526)" fill="#2fc4b2"/>
    <path id="Path_599" data-name="Path 599" d="M230.078,1692.36H740.442a.489.489,0,0,1,.488.489v.675a.491.491,0,0,1-.491.491H230.078a.488.488,0,0,1-.488-.488v-.675a.491.491,0,0,1,.491-.491Z" transform="translate(-49.985 -1182.779)" fill="#083a33"/>
    <path id="Path_600" data-name="Path 600" d="M1450.73,921.532s.018-6.235,3.464-5.805,4.486,6.7,4.486,6.7Z" transform="translate(-996.258 -580.943)" fill="#b2f0eb"/>
    <path id="Path_601" data-name="Path 601" d="M1356.812,942.49l40.7,3.646-24.832,44.113-38.308-2.2Z" transform="translate(-906.09 -601.698)" fill="#083a33"/>
    <path id="Path_602" data-name="Path 602" d="M1466.12,915.8s5.751,2.825,3.719,11.871-4.565,14.007-3.088,19.358l27.414,2.516a19.375,19.375,0,0,1,.331-14.314c3.309-7.2.959-15.43-2.08-16.146Z" transform="translate(-1008.184 -581.016)" fill="#e0f1ef"/>
    <path id="Path_603" data-name="Path 603" d="M1515.213,1075.6s-4.169-5.008-3.307-8.63,3.966-4.459,5.852-3.179,4.657,4.214,4.139,6.456S1517.3,1076.64,1515.213,1075.6Z" transform="translate(-1043.573 -695.258)" fill="#fff" stroke="#231f20" stroke-miterlimit="10" stroke-width="2"/>
    <path id="Path_604" data-name="Path 604" d="M1301.5,1096.86s7.059-3.1,10.293-2.2,7.595,1.553,7.937,2.717-2.328,5.472-6.3,5.69-10.953,2.069-12.634,0S1301.5,1096.86,1301.5,1096.86Z" transform="translate(-879.608 -719.489)" fill="#fff" stroke="#231f20" stroke-miterlimit="10" stroke-width="2"/>
    <path id="Path_605" data-name="Path 605" d="M1144.875,874.751a9.271,9.271,0,0,1,.9,3.923,26.7,26.7,0,0,1-1.029,4.871s-39.35,8.376-47,1.375c-8.209-7.518,7.023-64,13.542-69.524,2.809-2.384,8.734-3.827,14.2-4.707,3.014-.482,5.888-.783,8.027-.968,2.2-.191,3.633-.252,3.633-.252l-.891,3.271-3.451,12.751-4.022,14.874s-12.026,24.76-12.416,27.087S1144.875,874.751,1144.875,874.751Z" transform="translate(-720.894 -498.62)" fill="#289c8e"/>
    <path id="Path_606" data-name="Path 606" d="M1278.436,827.747l-15.628-29.806s-5.83,1.182-7.788,3.018c0,0,1,8.963,1.772,10.946,0,0,3.016-.345,3.448-.086a16.707,16.707,0,0,1-1.9,2.5S1271.929,820.652,1278.436,827.747Z" transform="translate(-844.601 -489.685)" fill="#2fc4b2"/>
  </g>
</svg>
