<svg xmlns="http://www.w3.org/2000/svg" width="516" height="426.073" viewBox="0 0 516 426.073">
  <g id="_45876-01" data-name="45876-01" transform="translate(-62.65 -226)">
    <path id="Path_622" data-name="Path 622" d="M185.708,678.4s-86.15-22.52-75.416-150.73,140.051-73.7,216.615-151.33,75.49-147.821,191.221-94.958,12.507,187.046,24.067,216.568,73.489,66.471,70.186,105.39-29.726,70.877-47.066,75.141l-379.6-.058Z" transform="translate(-33.858 -26.802)" fill="#e0f1ef"/>
    <path id="Path_623" data-name="Path 623" d="M1479.6,441.012a22.707,22.707,0,0,1,.523,11.106c6.02-12.386,10.39-20.321,10.509-20.536a.416.416,0,0,1,.551-.16.41.41,0,0,1,.16.551c-.132.239-5.626,10.206-12.8,25.3-.083.187-.138.3-.154.339l-.017.022c-3.7,7.795-7.825,16.933-11.888,26.789,3.3-4.737,9.559-12.909,14.516-15.078l1.7-.746c2.934-1.283,7-3.061,10.71-4.781,8.678-17.891,20.566-39.208,8.271-48.74-11.23-8.709-19.171,4.47-24.356,17.7C1477.945,435.3,1478.7,438.153,1479.6,441.012Z" transform="translate(-1017.446 -135.005)" fill="#fff"/>
    <path id="Path_624" data-name="Path 624" d="M1415.619,522.592c-3.011,1.376-6.4,2.879-9.812,4.368l-1.7.746c-6.372,2.791-15.38,16.515-16.369,18.059-6.8,16.867-13.212,35.55-16.916,53.088a.413.413,0,0,1-.4.328h-.085a.413.413,0,0,1-.319-.49c3.688-17.516,10.1-36.167,16.875-53.017a.4.4,0,0,1,.063-.2c0-.019.03-.047.052-.088,4.588-11.378,9.336-21.928,13.52-30.744.581-1.316,3.4-8.345,1.049-15.774-.773-2.452-1.437-4.891-1.987-7.123-2.992,7.9-5,15.562-6.146,18.287-3.121,7.431-10.506,10.734-24.54,21.716s-7.431,52.888-7.431,52.888l-1.552,1.7s12.7,47.548,40.328,42.938,10.352-69.713,8.728-85.815C1408.454,538.391,1411.617,530.9,1415.619,522.592Z" transform="translate(-940.201 -192.597)" fill="#fff"/>
    <path id="Path_625" data-name="Path 625" d="M296.384,1235.814c-14.018-27.213-26.814-48.236-26.941-48.442a.41.41,0,0,1,.138-.567.416.416,0,0,1,.567.138c.127.209,12.936,21.257,26.974,48.5,11.045,21.444,24.8,50.581,32.247,75.672l11.387-74.266s-30.106-39.043-35.173-54.286-50.809-14.863-50.809-14.863c6.5,16.993-9.193,51.553-9.193,51.553l5.175,16.217H239.979c-6.468,19.2,3.694,45.828,3.694,45.828l11.1,6.576-9.21,2.791c5.744,36.833,80.505,41.952,80.505,41.952l3-19.581C321.769,1287.64,307.666,1257.715,296.384,1235.814Zm3.322,23.159a.41.41,0,0,1-.339.176.415.415,0,0,1-.237-.074c-11.205-7.842-24.406-10.093-33.508-10.6a81.148,81.148,0,0,0-17.244.782.419.419,0,1,1-.149-.826,83.08,83.08,0,0,1,17.439-.8c9.21.515,22.57,2.8,33.934,10.751a.416.416,0,0,1,.1.589Z" transform="translate(-126.959 -682.503)" fill="#fff"/>
    <path id="Path_626" data-name="Path 626" d="M1459.155,1404.219l-2.695.256c-28.939,2.675-39.591,7.407-43.488,10.288l-49.766,57.167a.416.416,0,0,1-.625-.551l47.4-54.445a6.241,6.241,0,0,1,2.477-2.851l6.881-7.911c1.123-1.291,1.85-15.1-.55-26.052a21.158,21.158,0,0,1-.435-5.084q-2.139,1.267-4.44,2.477c-18.045,9.289-23.241-6.752-31.57-4.329s-24.675,34.755-24.675,34.755-30.276,62.455,4.255,73.137c0,0,73.115,9.424,82.812-17.764,4.781-13.4-10.253-21.67,1.228-37.466A133.547,133.547,0,0,0,1459.155,1404.219Z" transform="translate(-929.677 -831.25)" fill="#fff"/>
    <path id="Path_627" data-name="Path 627" d="M1639.56,1342.92l-36.607,42.051h0l-5.1,5.863c5.483-2.953,17.065-6.674,41.512-8.934q1.627-.151,3.165-.3C1648.45,1368.413,1650.71,1353.764,1639.56,1342.92Z" transform="translate(-1112.65 -809.498)" fill="#fff"/>
    <path id="Path_628" data-name="Path 628" d="M1613.956,1344.325c1.9,8.67,1.96,19.96,1.071,24.7l35.3-40.549A34.058,34.058,0,0,0,1647.3,1326c-9.609-6.98-18.873,3.886-33.725,12.9A20.668,20.668,0,0,0,1613.956,1344.325Z" transform="translate(-1124.019 -795.621)" fill="#fff"/>
    <path id="Path_629" data-name="Path 629" d="M1441.469,826.322a21.91,21.91,0,0,1-12.386-3.578c-12.221-8.128-14.084-27.249-5.535-56.873,6.675-23.12,18.166-47.63,26.616-64.131a17.238,17.238,0,0,1,10.891-8.893,14.3,14.3,0,0,1,11.676,1.836l6.7,4.459-2.9,4.357-6.7-4.459a9.12,9.12,0,0,0-7.459-1.131,11.989,11.989,0,0,0-7.555,6.22c-8.354,16.283-19.688,40.46-26.247,63.182-3.658,12.678-5.356,23.365-5.042,31.76.35,9.314,3.193,15.81,8.45,19.308s12.35,3.606,21.072.325c7.866-2.956,17.065-8.654,27.34-16.933,18.416-14.833,36.332-34.636,48.118-48.635a12,12,0,0,0,2.818-9.377,9.131,9.131,0,0,0-3.928-6.441l-5.866-3.9,2.9-4.354,5.865,3.9a14.29,14.29,0,0,1,6.209,10.055,17.245,17.245,0,0,1-3.991,13.487c-11.937,14.175-30.1,34.243-48.839,49.34C1466.736,819.477,1452.608,826.322,1441.469,826.322Z" transform="translate(-982.505 -337.985)" fill="#117c6f"/>
    <path id="Path_630" data-name="Path 630" d="M1761.4,810.988l1.522,1.013a3.3,3.3,0,0,0,4.58-.919l6.347-9.545a3.3,3.3,0,0,0-.919-4.58l-1.525-1.013a3.3,3.3,0,0,0-4.58.922l-6.347,9.543a3.3,3.3,0,0,0,.922,4.58Z" transform="translate(-1230.112 -412.671)" fill="#093830"/>
    <path id="Path_631" data-name="Path 631" d="M1621.8,718.151l1.525,1.013a3.3,3.3,0,0,0,4.577-.922l6.35-9.545a3.316,3.316,0,0,0-.922-4.58L1631.8,703.1a3.3,3.3,0,0,0-4.58.922l-6.347,9.545A3.3,3.3,0,0,0,1621.8,718.151Z" transform="translate(-1128.936 -345.384)" fill="#093830"/>
    <path id="Path_632" data-name="Path 632" d="M1507.815,1307.012a3.187,3.187,0,0,1-2.006-5.667c.16-.129,16.2-13.379,16.4-30.871.116-10.434-5.422-20.483-16.457-29.872-24.747-21.059-42.761-46.86-43.516-47.95a3.187,3.187,0,0,1,5.229-3.633c.182.259,18.317,26.225,42.409,46.725,12.565,10.69,18.854,22.413,18.7,34.848-.253,20.508-18,35.1-18.76,35.71A3.182,3.182,0,0,1,1507.815,1307.012Z" transform="translate(-1014.006 -697.051)" fill="#117c6f"/>
    <circle id="Ellipse_164" data-name="Ellipse 164" cx="23.704" cy="23.704" r="23.704" transform="translate(465.171 604.247)" fill="#117c6f"/>
    <circle id="Ellipse_165" data-name="Ellipse 165" cx="16.526" cy="16.526" r="16.526" transform="matrix(0.987, -0.16, 0.16, 0.987, 471.131, 616.227)" fill="#fff"/>
    <path id="Path_633" data-name="Path 633" d="M1566.714,1660.648a16.894,16.894,0,1,1,16.894-16.894A16.894,16.894,0,0,1,1566.714,1660.648Zm0-32.96a16.069,16.069,0,1,0,16.068,16.068A16.069,16.069,0,0,0,1566.714,1627.688Z" transform="translate(-1077.84 -1015.286)" fill="#093830"/>
    <path id="Path_634" data-name="Path 634" d="M1221.257,272.689l-25.617-26.974L1216.4,226l25.617,26.974Zm-24.447-26.938,24.477,25.771,19.542-18.576-24.477-25.771Z" transform="translate(-821.145)" fill="#093830"/>
    <path id="Path_635" data-name="Path 635" d="M1232.174,293.56a2.32,2.32,0,1,1,1.682-3.917h0a2.318,2.318,0,0,1-1.682,3.917Zm0-3.812a1.492,1.492,0,1,0,1.084.462h0A1.492,1.492,0,0,0,1232.174,289.748Z" transform="translate(-845.94 -45.602)" fill="#093830"/>
    <path id="Path_636" data-name="Path 636" d="M1259.017,322.334h-.061a2.147,2.147,0,1,1,.061,0Zm0-3.818a1.495,1.495,0,1,0,1.084.465h0a1.478,1.478,0,0,0-1.046-.462Z" transform="translate(-865.5 -66.707)" fill="#093830"/>
    <path id="Path_637" data-name="Path 637" d="M1285.481,350.184h-.055a2.147,2.147,0,1,1,.061,0Zm0-3.818a1.477,1.477,0,0,0-1.026.413,1.494,1.494,0,1,0,2.111.055h0a1.473,1.473,0,0,0-1.043-.462Z" transform="translate(-884.684 -86.892)" fill="#093830"/>
    <path id="Path_638" data-name="Path 638" d="M1261.621,265.6a2.32,2.32,0,1,1,1.682-3.919h0a2.32,2.32,0,0,1-1.682,3.919Zm0-3.815a.64.64,0,1,1,0,.011Z" transform="translate(-867.284 -25.337)" fill="#093830"/>
    <path id="Path_639" data-name="Path 639" d="M1288.081,293.45a2.32,2.32,0,1,1,1.682-3.919h0a2.323,2.323,0,0,1-1.682,3.919Zm0-3.815a1.495,1.495,0,1,0,1.085.465,1.494,1.494,0,0,0-1.085-.465Z" transform="translate(-886.461 -45.522)" fill="#093830"/>
    <path id="Path_640" data-name="Path 640" d="M1314.531,321.3a2.32,2.32,0,1,1,1.682-3.919h0a2.323,2.323,0,0,1-1.682,3.919Zm0-3.815a1.495,1.495,0,1,0,1.446,1.121A1.494,1.494,0,0,0,1314.531,317.486Z" transform="translate(-905.631 -65.706)" fill="#093830"/>
    <path id="Path_641" data-name="Path 641" d="M88.726,1370.32l-26.076-11.8,15.336-33.888,26.076,11.8ZM63.743,1358.1l24.574,11.122,14.654-32.385L78.4,1325.723Z" transform="translate(0 -796.242)" fill="#093830"/>
    <path id="Path_642" data-name="Path 642" d="M128.584,1360.239a2.351,2.351,0,0,1-.955-.206,2.32,2.32,0,1,1,3.072-1.159h0a2.325,2.325,0,0,1-2.117,1.365Zm0-3.818a1.535,1.535,0,0,0-.528.1,1.5,1.5,0,1,0,1.9,2.015h0a1.5,1.5,0,0,0-.746-1.976,1.475,1.475,0,0,0-.622-.135Zm1.737,2.282Z" transform="translate(-46.106 -818.687)" fill="#093830"/>
    <path id="Path_643" data-name="Path 643" d="M112.732,1395.23a2.32,2.32,0,1,1,2.117-1.376h0a2.323,2.323,0,0,1-2.117,1.376Zm0-3.815a1.46,1.46,0,0,0-.526.1,1.495,1.495,0,1,0,1.142.036,1.515,1.515,0,0,0-.614-.132Zm1.737,2.282Z" transform="translate(-34.614 -844.047)" fill="#093830"/>
    <path id="Path_644" data-name="Path 644" d="M96.9,1430.22a2.32,2.32,0,1,1,2.3-1.991A2.318,2.318,0,0,1,96.9,1430.22Zm0-3.815a1.5,1.5,0,1,0,1.253.687A1.5,1.5,0,0,0,96.9,1426.4Z" transform="translate(-23.14 -869.406)" fill="#093830"/>
    <path id="Path_645" data-name="Path 645" d="M165.579,1376.974a2.3,2.3,0,0,1-.952-.206,2.32,2.32,0,0,1,.138-4.286,2.3,2.3,0,0,1,1.775.058,2.32,2.32,0,0,1,1.156,3.069h0A2.326,2.326,0,0,1,165.579,1376.974Zm0-3.818a1.459,1.459,0,0,0-.526.1,1.495,1.495,0,1,0,1.888,2.015h0a1.5,1.5,0,0,0-1.362-2.114Zm1.74,2.282Z" transform="translate(-72.92 -830.814)" fill="#093830"/>
    <path id="Path_646" data-name="Path 646" d="M149.741,1411.969a2.3,2.3,0,0,1-.952-.206,2.32,2.32,0,1,1,.952.206Zm0-3.815a1.517,1.517,0,0,0-.528.1,1.473,1.473,0,0,0-.826.782,1.495,1.495,0,1,0,2.722,1.233h0a1.495,1.495,0,0,0-1.36-2.111Z" transform="translate(-61.441 -856.179)" fill="#093830"/>
    <path id="Path_647" data-name="Path 647" d="M133.9,1446.969a2.293,2.293,0,0,1-.952-.206,2.32,2.32,0,1,1,.952.206Zm0-3.815a1.494,1.494,0,1,0,.526,2.893,1.472,1.472,0,0,0,.826-.782,1.492,1.492,0,0,0-.746-1.979,1.464,1.464,0,0,0-.606-.132Z" transform="translate(-49.961 -881.545)" fill="#093830"/>
    <path id="Path_648" data-name="Path 648" d="M358.4,860.9a5.169,5.169,0,0,0-5.978,4.189l-1.731,9.821a5.172,5.172,0,0,0,4.189,5.981,5.27,5.27,0,0,0,.9.077,5.172,5.172,0,0,0,5.084-4.266l1.728-9.832A5.169,5.169,0,0,0,358.4,860.9Zm-3.377,19.187a4.341,4.341,0,0,1-3.518-5.023l.793-4.508,8.532,1.5-.784,4.5A4.341,4.341,0,0,1,355.027,880.082Zm6.754-13.349-.793,4.508-8.532-1.506.793-4.508a4.338,4.338,0,0,1,8.533,1.506Z" transform="translate(-208.707 -460.089)" fill="#093830"/>
    <path id="Path_649" data-name="Path 649" d="M1794.448,1338.458a6.984,6.984,0,0,0-2.442-4.8l-1.891-1.61a7.046,7.046,0,0,0-9.925.793l-12.339,14.478a7.049,7.049,0,0,0,.793,9.925l1.891,1.61a7.046,7.046,0,0,0,9.925-.793l12.336-14.478a6.975,6.975,0,0,0,1.651-5.125Zm-14.618,19.058a6.223,6.223,0,0,1-8.761.7l-1.888-1.613a6.221,6.221,0,0,1-.7-8.761l5.9-6.925,11.348,9.675Zm12.339-14.48-5.9,6.925-11.351-9.672,5.9-6.925a6.226,6.226,0,0,1,8.761-.7l1.891,1.61A6.237,6.237,0,0,1,1792.168,1343.036Z" transform="translate(-1234.643 -800.401)" fill="#093830"/>
    <path id="Path_650" data-name="Path 650" d="M1719.383,1182.173l-1.316-11.01a5.683,5.683,0,1,0-11.285,1.351l.658,5.5h0l.655,5.5a5.7,5.7,0,0,0,5.637,5.007,6.261,6.261,0,0,0,.68-.039,5.7,5.7,0,0,0,4.968-6.331Zm-7.533-15.138a4.594,4.594,0,0,1,.581-.036,4.867,4.867,0,0,1,4.819,4.28l.608,5.089-9.634,1.153-.608-5.089a4.858,4.858,0,0,1,4.233-5.4Zm5.706,18.815a4.858,4.858,0,0,1-8.637-2.422l-.608-5.086,9.633-1.156.608,5.089a4.822,4.822,0,0,1-1,3.57Z" transform="translate(-1191.57 -681.387)" fill="#093830"/>
    <rect id="Rectangle_359" data-name="Rectangle 359" width="241.337" height="344.351" transform="translate(198.071 307.29)" fill="#289c8e"/>
    <rect id="Rectangle_360" data-name="Rectangle 360" width="193.643" height="298.565" transform="translate(220.883 330.539)" fill="#fff"/>
    <path id="Path_651" data-name="Path 651" d="M830.48,903.7H636V604.31H830.469Zm-193.643-.826H829.654V605.136H636.826Z" transform="translate(-415.541 -274.184)" fill="#093830"/>
    <path id="Path_652" data-name="Path 652" d="M723.437,824.823a.41.41,0,0,0-.581-.055l-9.11,7.509a16.515,16.515,0,0,0-26.423.79l-1.17-1.255a.413.413,0,0,0-.6.55l1.3,1.4a16.55,16.55,0,1,0,27.4-.826l9.135-7.531A.41.41,0,0,0,723.437,824.823Zm-22.608,2.056A15.688,15.688,0,0,1,713.1,832.8l-14.723,12.143-10.495-11.26A15.719,15.719,0,0,1,700.829,826.879ZM716.553,842.6a15.724,15.724,0,1,1-29.129-8.208l10.886,11.681,15.3-12.614a15.642,15.642,0,0,1,2.945,9.141Z" transform="translate(-450.533 -433.893)" fill="none" stroke="#093830" stroke-miterlimit="10" stroke-width="1"/>
    <path id="Path_653" data-name="Path 653" d="M714.973,1034.386a.416.416,0,0,0-.584-.055l-9.108,7.509a16.515,16.515,0,0,0-26.423.79l-1.17-1.252a.413.413,0,1,0-.6.551l1.3,1.4a16.55,16.55,0,1,0,27.406-.826l9.133-7.531A.413.413,0,0,0,714.973,1034.386Zm-22.611,2.059a15.689,15.689,0,0,1,12.284,5.92l-14.728,12.141-10.495-11.252A15.716,15.716,0,0,1,692.362,1036.445Zm15.724,15.724a15.724,15.724,0,1,1-29.129-8.21l10.886,11.681,15.3-12.611A15.627,15.627,0,0,1,708.087,1052.169Z" transform="translate(-444.398 -585.776)" fill="none" stroke="#093830" stroke-miterlimit="10" stroke-width="1"/>
    <path id="Path_654" data-name="Path 654" d="M711.684,1243.894l-9.108,7.511a16.515,16.515,0,0,0-26.423.79l-1.167-1.255a.413.413,0,0,0-.606.551l1.3,1.4a16.55,16.55,0,1,0,27.4-.826l9.135-7.531C712.392,1244.383,711.86,1243.75,711.684,1243.894Zm-22.028,2.114a15.689,15.689,0,0,1,12.281,5.92l-14.725,12.141-10.495-11.257A15.718,15.718,0,0,1,689.656,1246.008Zm15.724,15.738a15.724,15.724,0,1,1-29.129-8.21l10.886,11.678,15.3-12.612A15.64,15.64,0,0,1,705.38,1261.746Z" transform="translate(-442.438 -737.66)" fill="none" stroke="#093830" stroke-miterlimit="10" stroke-width="1"/>
    <path id="Path_655" data-name="Path 655" d="M976.76,839.946H859.293a.413.413,0,0,1,0-.826H976.76a.413.413,0,0,1,0,.826Z" transform="translate(-577.075 -444.364)" fill="none" stroke="#093830" stroke-miterlimit="10" stroke-width="1"/>
    <path id="Path_656" data-name="Path 656" d="M942.1,909.036H855.693a.413.413,0,0,1,0-.826H942.1a.413.413,0,0,1,0,.826Z" transform="translate(-574.466 -494.438)" fill="none" stroke="#093830" stroke-miterlimit="10" stroke-width="1"/>
    <path id="Path_657" data-name="Path 657" d="M969.037,1057.486H850.293a.413.413,0,0,1,0-.826H969.037a.413.413,0,1,1,0,.826Z" transform="translate(-570.552 -602.028)" fill="none" stroke="#093830" stroke-miterlimit="10" stroke-width="1"/>
    <path id="Path_658" data-name="Path 658" d="M903.437,1126.566H846.693a.413.413,0,1,1,0-.826h56.744a.413.413,0,0,1,0,.826Z" transform="translate(-567.943 -652.095)" fill="none" stroke="#093830" stroke-miterlimit="10" stroke-width="1"/>
    <path id="Path_659" data-name="Path 659" d="M964.439,1275.016H842.293a.413.413,0,0,1,0-.826H964.439a.413.413,0,0,1,0,.826Z" transform="translate(-564.754 -759.685)" fill="none" stroke="#093830" stroke-miterlimit="10" stroke-width="1"/>
    <path id="Path_660" data-name="Path 660" d="M934.537,1344.106H838.693a.413.413,0,0,1,0-.826h95.844a.413.413,0,1,1,0,.826Z" transform="translate(-562.145 -809.759)" fill="none" stroke="#093830" stroke-miterlimit="10" stroke-width="1"/>
    <path id="Path_661" data-name="Path 661" d="M817.154,1437.7H702.7a.413.413,0,0,1,0-.826H817.154a.413.413,0,0,1,0,.826Z" transform="translate(-463.585 -877.589)" fill="none" stroke="#093830" stroke-miterlimit="10" stroke-width="1"/>
    <path id="Path_662" data-name="Path 662" d="M813.536,1508.5H699.083a.413.413,0,1,1,0-.826H813.536a.413.413,0,1,1,0,.826Z" transform="translate(-460.961 -928.902)" fill="none" stroke="#093830" stroke-miterlimit="10" stroke-width="1"/>
    <path id="Path_663" data-name="Path 663" d="M594.333,475.435c0,41.688-19.407,75.482-43.348,75.482s-43.345-33.794-43.345-75.482c0,0,15.964-5.364,21.042-7.685,5.94-2.717,23.04-12.46,23.04-12.46s16.713,9.821,22.294,12.46C579.087,470.148,594.333,475.435,594.333,475.435Z" transform="translate(-322.511 -166.18)" fill="#8de5db"/>
    <path id="Path_664" data-name="Path 664" d="M549.9,550.076c-11.731,0-22.743-7.924-31.006-22.314-8.224-14.312-12.752-33.348-12.752-53.581v-.3l.275-.094c.16-.052,16-5.384,21-7.671,5.857-2.675,22.845-12.345,23.01-12.441l.206-.118.206.121c.168.1,16.759,9.84,22.259,12.441,5,2.362,20.123,7.616,20.277,7.671l.275.094v.295c0,20.233-4.53,39.26-12.752,53.581C572.644,542.152,561.631,550.076,549.9,550.076Zm-42.938-75.6c.094,41.259,19.316,74.772,42.938,74.772s42.841-33.519,42.938-74.775c-2.095-.732-15.414-5.406-20.093-7.608-5.188-2.452-20.172-11.219-22.11-12.361-1.971,1.12-17.34,9.829-22.867,12.358-4.668,2.139-18.637,6.881-20.8,7.613Z" transform="translate(-321.423 -164.926)" fill="#0e2549"/>
    <path id="Path_665" data-name="Path 665" d="M607.225,505.8c0,34.1-15.873,61.739-35.454,61.739S536.32,539.9,536.32,505.8c0,0,14.153-4.564,18.628-6.606,4.577-2.1,17.585-10,17.585-10s12.876,8.274,17.464,10.473C594.082,501.616,607.225,505.8,607.225,505.8Z" transform="translate(-343.297 -190.757)" fill="#fff"/>
    <path id="Path_666" data-name="Path 666" d="M570.684,566.621c-9.633,0-18.653-6.5-25.427-18.29-6.73-11.723-10.437-27.3-10.437-43.862v-.3l.275-.094c.14-.044,14.18-4.577,18.582-6.606,4.506-2.067,17.414-9.909,17.544-9.977l.22-.132.217.138c.129.083,12.906,8.287,17.42,10.459,4.01,1.927,17.043,6.08,17.175,6.121l.275.094v.3c0,16.561-3.708,32.14-10.44,43.862C589.34,560.125,580.309,566.621,570.684,566.621Zm-35.038-61.852c.094,33.676,15.777,61.026,35.038,61.026s34.956-27.348,35.041-61.024c-2-.641-13.212-4.263-16.993-6.072-4.288-2.053-15.529-9.229-17.291-10.36-1.737,1.051-13.19,7.952-17.409,9.889C549.884,500.131,537.729,504.095,535.646,504.769Z" transform="translate(-342.21 -189.423)" fill="#0e2549"/>
    <path id="Path_667" data-name="Path 667" d="M627.516,561.2H611.648V545.34H597.325V561.2H581.46v14.326h15.865V591.4h14.324V575.531h15.868Z" transform="translate(-376.012 -231.445)" fill="#093830"/>
    <path id="Path_668" data-name="Path 668" d="M1714.331,622.821l-5.609-1.189,1.126-5.318-5.318-1.123,1.189-5.609,5.318,1.126,1.126-5.318,5.609,1.189-1.129,5.318,5.32,1.126-1.189,5.609-5.318-1.126ZM1709.7,621l3.991.845,1.129-5.318,5.318,1.126.845-3.994-5.315-1.126,1.126-5.318-3.994-.845-1.126,5.318-5.318-1.126-.845,3.991,5.318,1.128Z" transform="translate(-1189.968 -274.966)" fill="#093830"/>
    <path id="Path_669" data-name="Path 669" d="M1674.77,588.3l-.206-.231c-.773-.867-18.97-21.383-17.583-35.638a11.883,11.883,0,0,1,4.789-8.676,6.534,6.534,0,0,1,5.32-1.244c6.658,1.219,13.346,10.974,14.643,12.956,2.144-1.222,13.308-7.321,19.542-5.45a5.362,5.362,0,0,1,3.432,2.849,11.91,11.91,0,0,1,.427,9.449c-4.7,13.539-29.052,25.355-30.087,25.851Zm-9-45.087a5.689,5.689,0,0,0-3.5,1.2,11.118,11.118,0,0,0-4.464,8.1c-1.274,13.1,15.138,32.426,17.17,34.774,2.769-1.376,25.047-12.79,29.385-25.242a11.108,11.108,0,0,0-.388-8.808,4.517,4.517,0,0,0-2.929-2.422c-6.427-1.927-19.1,5.5-19.231,5.571l-.347.2-.212-.339c-.074-.118-7.407-11.656-14.313-12.92a6.4,6.4,0,0,0-1.172-.115Z" transform="translate(-1155.451 -229.298)" fill="#093830"/>
    <path id="Path_670" data-name="Path 670" d="M1429.209,348.014a5.681,5.681,0,0,0-10.22-2.375l-6.443,9.009a5.689,5.689,0,0,0,1.318,7.927,5.623,5.623,0,0,0,3.284,1.057,5.872,5.872,0,0,0,.952-.08,5.629,5.629,0,0,0,3.691-2.293l6.441-9.009a5.634,5.634,0,0,0,.977-4.236Zm-8.089,12.763a4.856,4.856,0,1,1-7.9-5.648l2.981-4.17,7.9,5.651Zm6.441-9.009-2.981,4.17-7.9-5.651,2.981-4.167a4.855,4.855,0,0,1,7.9,5.648Z" transform="translate(-977.583 -84.992)" fill="#093830"/>
    <path id="Path_671" data-name="Path 671" d="M252.1,1008.7l1.6,31.785,21.194-7.352-17.7-26.148A2.789,2.789,0,0,0,252.1,1008.7Z" transform="translate(-137.302 -565.135)" fill="#d2ebfc"/>
    <path id="Path_672" data-name="Path 672" d="M252.231,1039.986l-1.632-32.332a3.207,3.207,0,0,1,5.857-1.963l18.006,26.588Zm1.6-34.878a2.529,2.529,0,0,0-.784.124,2.34,2.34,0,0,0-1.624,2.381L253,1038.847l20.175-7-17.4-25.694A2.282,2.282,0,0,0,253.83,1005.108Z" transform="translate(-136.215 -564.068)" fill="#0d5e52"/>
    <path id="Path_673" data-name="Path 673" d="M328.692,1277.916h0a13.385,13.385,0,0,1-17.032-8.257L256.3,1110.033A13.382,13.382,0,0,1,264.561,1093h0a13.382,13.382,0,0,1,17.029,8.257l55.359,159.623A13.385,13.385,0,0,1,328.692,1277.916Z" transform="translate(-139.814 -627.831)" fill="#8de5db"/>
    <path id="Path_674" data-name="Path 674" d="M323.206,1277.994a13.82,13.82,0,0,1-13.013-9.287l-55.368-159.623a13.8,13.8,0,0,1,26.068-9.039l55.359,159.621a13.8,13.8,0,0,1-8.513,17.555h0a13.8,13.8,0,0,1-4.533.773Zm-55.359-186.4a12.975,12.975,0,0,0-12.243,17.222l55.359,159.623a12.972,12.972,0,0,0,16.514,8h0a12.975,12.975,0,0,0,8-16.514l-55.367-159.612A13,13,0,0,0,267.847,1091.592Z" transform="translate(-138.726 -626.747)" fill="#0d5e52"/>
    <path id="Path_675" data-name="Path 675" d="M303.572,1135.467a.413.413,0,0,0-.526-.253l-4.811,1.668-2.073-5.981,1.894-.658a.413.413,0,1,0-.275-.779l-1.894.658-2.073-5.984,4.817-1.668a.414.414,0,1,0-.275-.782l-4.808,1.668-2.075-5.981,1.894-.658a.413.413,0,0,0-.275-.779l-1.891.658-2.075-5.981,4.814-1.671a.413.413,0,0,0-.275-.779l-4.814,1.668-2.075-5.981,1.9-.658a.413.413,0,1,0-.275-.779l-1.9.658-2.075-5.981,4.819-1.673a.413.413,0,1,0-.275-.779l-4.819,1.671-2.056-5.984,1.9-.658a.413.413,0,1,0-.275-.779l-1.9.658-2.075-5.981,4.817-1.671a.414.414,0,0,0-.275-.782l-4.817,1.671-2.075-5.981,1.9-.658a.413.413,0,0,0-.275-.779l-1.9.658-2.075-5.981,4.822-1.674a.413.413,0,1,0-.275-.779l-4.822,1.671-2.075-5.981,1.9-.658a.413.413,0,1,0-.275-.779l-1.9.658-3.82-11.01a3.578,3.578,0,0,0,.842-3.708l-3.578-10.36a3.6,3.6,0,0,0-4.583-2.221h0a3.6,3.6,0,0,0-2.221,4.58l3.608,10.357a3.6,3.6,0,0,0,2.934,2.389l3.823,11.01-1.88.652a.411.411,0,0,0,.135.8.386.386,0,0,0,.135-.025l1.88-.652,2.075,5.981-4.811,1.671a.413.413,0,0,0,.135.8.384.384,0,0,0,.135-.022l4.811-1.668,2.075,5.981-1.883.652a.413.413,0,0,0,.138.8.387.387,0,0,0,.135-.022l1.88-.652,2.075,5.981-4.817,1.671a.413.413,0,0,0,.135.8.456.456,0,0,0,.135-.022l4.817-1.671,2.075,5.981-1.885.652a.413.413,0,0,0,.138.8.4.4,0,0,0,.135-.025l1.883-.652,2.075,5.981-4.814,1.671a.41.41,0,0,0,.135.8.384.384,0,0,0,.135-.022l4.814-1.668,2.073,5.981-1.883.652a.413.413,0,0,0,.135.8.4.4,0,0,0,.138-.025l1.883-.652,2.073,5.981-4.817,1.671a.413.413,0,0,0,.135.8.46.46,0,0,0,.135-.022l4.819-1.673,2.073,5.984-1.885.652a.413.413,0,0,0,.135.8.452.452,0,0,0,.135-.022l1.888-.655,2.073,5.981-4.817,1.671a.413.413,0,0,0,.138.8.4.4,0,0,0,.135-.025l4.817-1.671,2.073,5.981-1.885.655a.413.413,0,0,0,.135.8.388.388,0,0,0,.135-.025l1.885-.652,2.089,5.986-4.836,1.679a.413.413,0,0,0,.135.8.4.4,0,0,0,.138-.022l4.819-1.673,2.075,5.981-1.874.652a.413.413,0,0,0,.135.8.4.4,0,0,0,.138-.022l1.872-.65,1.55,4.464,3.028-1.049-1.547-4.464,1.9-.661a.414.414,0,0,0-.275-.782l-1.907.663-2.073-5.984,4.811-1.668A.413.413,0,0,0,303.572,1135.467Z" transform="translate(-142.202 -586.334)" fill="#0d5e52"/>
    <path id="Path_676" data-name="Path 676" d="M413.261,1442.668a.413.413,0,0,0-.526-.256l-4.99,1.731-2.086-5.981,2.075-.718a.414.414,0,0,0-.275-.782l-2.073.721-2.075-5.981,5-1.734a.414.414,0,1,0-.275-.782l-5,1.734-2.059-5.981,2.075-.718a.414.414,0,0,0-.275-.782l-2.073.721-2.075-5.981,4.993-1.731a.414.414,0,1,0-.275-.782l-4.99,1.731-2.059-5.981,2.075-.718a.414.414,0,1,0-.275-.781l-2.075.721-2.075-5.981,5-1.734a.413.413,0,0,0-.275-.779l-5,1.731-2.075-5.967,2.075-.718a.414.414,0,1,0-.275-.782l-2.075.721-2.075-5.981,4.987-1.729a.414.414,0,1,0-.275-.781l-4.985,1.728-2.075-5.981,2.07-.716a.414.414,0,1,0-.275-.782l-2.056.707-2.073-5.981,4.99-1.726a.413.413,0,1,0-.275-.779l-4.99,1.729-10.121-29.2-.135-.391-2.686.93,10.258,29.583-4.979,1.726a.413.413,0,0,0,.138.8.473.473,0,0,0,.135-.022l4.976-1.729,2.075,5.984-2.048.721a.413.413,0,0,0,.135.8.384.384,0,0,0,.135-.022l2.048-.71L386.3,1391l-4.985,1.729a.413.413,0,0,0,.135.8.407.407,0,0,0,.138-.025l4.982-1.729,2.075,5.981-2.042.71a.413.413,0,0,0,.135.8.4.4,0,0,0,.138-.022l2.04-.707,2.075,5.981-4.971,1.723a.413.413,0,0,0,.135.8.464.464,0,0,0,.135-.022l4.971-1.726,2.075,5.981-2.042.71a.413.413,0,0,0,.135.8.376.376,0,0,0,.135-.022l2.042-.707,2.075,5.981-4.979,1.726a.413.413,0,0,0,.138.8.4.4,0,0,0,.135-.025l4.976-1.726,2.073,5.981-2.04.707a.413.413,0,0,0,.135.8.46.46,0,0,0,.135-.022l2.042-.708,2.073,5.981-4.971,1.723a.413.413,0,0,0,.135.8.483.483,0,0,0,.138-.022l4.971-1.726,2.073,5.981-2.04.707a.413.413,0,0,0,.135.8.456.456,0,0,0,.135-.022l2.042-.707,2.073,5.981-4.976,1.726a.413.413,0,0,0,.135.8.373.373,0,0,0,.135-.022l4.979-1.726.526,1.517.135.391,2.686-.933-.661-1.9L413,1443.2a.413.413,0,0,0,.256-.537ZM372.4,1348.392l1.128-.391,9.988,28.8-1.129.391Zm10.261,29.58,1.126-.391,2.075,5.981-1.129.391Zm2.345,6.763,1.126-.391,2.075,5.981-1.128.391Zm2.345,6.76,1.126-.391,2.075,5.981-1.129.391Zm2.345,6.763,1.126-.391,2.075,5.981-1.128.391Zm2.342,6.76,1.128-.391,2.073,5.981-1.126.391Zm2.345,6.76,1.129-.391,2.073,5.981-1.126.391Zm2.345,6.763,1.129-.391,2.073,5.981-1.126.391Zm2.345,6.76,1.128-.391,2.073,5.981-1.126.391Zm2.345,6.763,1.129-.391,2.073,5.981-1.126.391Zm2.345,6.76,1.128-.391,2.073,5.981-1.126.391Zm3.853,7.5-1.126.391-.391-1.126,1.126-.391Z" transform="translate(-223.733 -812.419)" fill="#0d5e52"/>
    <path id="Path_677" data-name="Path 677" d="M1039.59,1669.17h0a10.184,10.184,0,0,1-3.388-13.963l11.111-18.232a10.184,10.184,0,0,1,13.963-3.385h0a10.184,10.184,0,0,1,3.388,13.96l-11.111,18.232a10.184,10.184,0,0,1-13.963,3.388Z" transform="translate(-704.52 -1019.092)" fill="#b2f0eb"/>
    <path id="Path_678" data-name="Path 678" d="M1054.55,1700.76s-2.783,5.351-6.168,6.02-8.227,1.42-12.309-4.228,1.4-12.818,1.4-12.818l4.164-6.834,17.34,10.575Z" transform="translate(-704.403 -1055.901)" fill="#0d5e52"/>
    <path id="Path_679" data-name="Path 679" d="M1165.609,1437.241V1414.33h52.9v22.911c8.337.875,14.863,8.348,14.863,17.437v58.181H1150.76v-58.181C1150.76,1445.589,1157.311,1438.014,1165.609,1437.241Z" transform="translate(-788.618 -861.253)" fill="#8de5db"/>
    <path id="Path_680" data-name="Path 680" d="M1150.76,1622.659H1195.7l.5-35.919H1150.76Z" transform="translate(-788.618 -986.209)" fill="#fff"/>
    <path id="Path_681" data-name="Path 681" d="M1217.794,1435.785V1412.83h-53.721v22.952c-8.356.985-14.863,8.731-14.863,17.808v58.593h83.423V1453.59C1232.646,1444.461,1226.286,1436.875,1217.794,1435.785Zm-18.392-22.129h4.47v22.085h-4.47Zm-4.954,0h4.129v22.085h-4.129Zm-5.425,0h4.6v22.085h-4.6Zm-5.871,0h5.045v22.085h-5.045Zm-6.055,0h5.23v22.085h-5.23Zm-6.33,0h5.5v22.085h-5.5Zm-5.854,0h5.029v22.085h-5.029Zm-14.863,47.454h44.611l-.49,35.093h-44.121Zm81.771,50.248h-81.771v-14.329h44.936l.515-36.745h-45.451v-6.694c0-8.783,6.35-16.258,14.458-17.024h42.043v-.826H1204.7v-22.085h12.27v22.87l.369.038c8.257.867,14.483,8.188,14.483,17.026Z" transform="translate(-787.494 -860.166)" fill="#e0f1ef"/>
    <path id="Path_682" data-name="Path 682" d="M1341.08,1702.11l.014,8.645h11.978l1-8.2Z" transform="translate(-926.554 -1069.824)" fill="#fff"/>
    <path id="Path_683" data-name="Path 683" d="M1352.364,1710.025h-12.755l-.019-9.485,13.872.473Zm-11.932-.826h11.2l.9-7.393-12.111-.413Z" transform="translate(-925.474 -1068.686)" fill="#093830"/>
    <path id="Path_684" data-name="Path 684" d="M1455.485,1338v16.864l-14.725-.9,2.128-15.279Z" transform="translate(-998.798 -805.932)" fill="#8daec4"/>
    <path id="Path_685" data-name="Path 685" d="M1291.59,1731.62s-17.313,5.5-17.91,10.024h31.042V1731.62Z" transform="translate(-877.705 -1091.212)" fill="#289c8e"/>
    <path id="Path_686" data-name="Path 686" d="M1516.5,1702.3l.325,8.744H1528.8l.567-8.934Z" transform="translate(-1053.691 -1069.824)" fill="#fff"/>
    <path id="Path_687" data-name="Path 687" d="M1528.061,1710.355H1515.3l-.358-9.565,13.74-.2Zm-11.968-.826h11.191l.515-8.1-12,.176Z" transform="translate(-1052.56 -1068.723)" fill="#093830"/>
    <path id="Path_688" data-name="Path 688" d="M1468.14,1732.67s-17.313,5.505-17.91,10.025h31.039V1732.67Z" transform="translate(-1005.661 -1091.973)" fill="#289c8e"/>
    <path id="Path_689" data-name="Path 689" d="M1446.13,1761.854v2.6h32.979v-2.978Z" transform="translate(-1002.69 -1112.853)" fill="#0d5e52"/>
    <path id="Path_690" data-name="Path 690" d="M1303.139,1760.631v2.774H1270.16v-2.975Z" transform="translate(-875.154 -1112.092)" fill="#0d5e52"/>
    <path id="Path_691" data-name="Path 691" d="M1455.221,901.394l-.743-.358c.058-.124,5.94-12.512,2.851-18.678a6.045,6.045,0,0,0-4.478-3.226h-12.386c-.072,0-9.416.6-9.545,6.2a61.182,61.182,0,0,0,1.1,11.483l-.809.168a62.526,62.526,0,0,1-1.115-11.67c.146-6.364,9.931-6.986,10.346-7.008h12.54a6.828,6.828,0,0,1,5.095,3.674C1461.337,888.519,1455.472,900.871,1455.221,901.394Z" transform="translate(-991.063 -472.768)" fill="#093830"/>
    <path id="Path_692" data-name="Path 692" d="M1398.1,1153.43l-.479,44.983-.283,26.806-.861,81.009h-19.063l-8.527-82.63-1.282-12.433-2.469,12.232-16.713,82.831h-18.35l7.561-82.831v0l3.487-38.228,2.031-22.245,25.752-4.448,9.969-1.723Z" transform="translate(-918.574 -672.163)" fill="#093830"/>
    <path id="Path_693" data-name="Path 693" d="M1439.177,848.06s1.349,14.161.215,15.727-7.671,4.451-7.671,4.451l10.963,32.236,23.415-2.262,1.517-23.968s-10.685-8.706-11.332-10.492c-.892-2.477-.894-15.689-.894-15.689Z" transform="translate(-992.246 -450.844)" fill="#fff"/>
    <path id="Path_694" data-name="Path 694" d="M1441.051,899.821l-11.191-32.9.344-.154c1.792-.79,6.63-3.1,7.506-4.316.76-1.049.223-10.033-.292-15.447a.415.415,0,0,1,.826-.08c.226,2.392,1.3,14.4.138,16.011-1.052,1.451-6.028,3.771-7.495,4.434l10.734,31.57,22.738-2.2,1.484-23.4c-1.673-1.376-10.657-8.769-11.285-10.539-.905-2.513-.919-15.29-.919-15.832a.413.413,0,1,1,.826,0c0,.129,0,13.173.87,15.551.446,1.233,6.944,6.842,11.2,10.313l.165.135-1.555,24.53Z" transform="translate(-990.898 -449.748)" fill="#093830"/>
    <path id="Path_695" data-name="Path 695" d="M1168.236,941.3c3.578,2.023,17.8,17.065,17.8,17.065l-10.2,4.872s-8.279-15.463-9.744-15.658c-2.752-.372-11.078-.121-13.762-1.927-4.062-2.722-6.163-6.19-5.678-7.269.275-.583,7.308,3.641,8.852,3.683C1159.866,942.18,1165.688,939.86,1168.236,941.3Z" transform="translate(-785.589 -516.267)" fill="#fff"/>
    <path id="Path_696" data-name="Path 696" d="M1174.566,962.69l-.187-.347c-3.914-7.313-8.532-15.094-9.457-15.449-.716-.1-1.891-.151-3.251-.215-3.639-.168-8.62-.4-10.663-1.767-4.1-2.752-6.46-6.375-5.827-7.784a.492.492,0,0,1,.275-.261c.44-.16,1.239.19,4.184,1.651,1.819.9,4.082,2.029,4.767,2.048a30.021,30.021,0,0,0,5.64-.644c2.9-.512,5.645-1,7.291-.069h0c3.578,2.031,17.313,16.514,17.891,17.136l.391.41ZM1145.9,937.7c.025,1.029,1.814,4.01,5.571,6.526,1.849,1.241,6.7,1.467,10.242,1.632,1.376.063,2.571.118,3.347.223.363.05,1.118.151,5.722,8.106,1.844,3.185,3.578,6.383,4.129,7.431l9.336-4.459c-2.309-2.425-14.156-14.786-17.313-16.569-1.376-.784-3.988-.325-6.741.16a30.409,30.409,0,0,1-5.8.658c-.809-.022-2.551-.859-5.117-2.136A30.3,30.3,0,0,0,1145.9,937.7Z" transform="translate(-784.5 -515.181)" fill="#093830"/>
    <path id="Path_697" data-name="Path 697" d="M1394.415,905.863c-7.079,2.582-5.367,40.375-5.367,40.375-1.156,4.445-3.878,28.24-3.878,28.24l49.6,9.889,5.846-29.7s3.664-50-15.771-52.932c-1.863-.275-7.561,2.384-13.652,1.795-2.642-.253-3.988,2.9-5.3-1.729C1405.893,901.795,1395.954,905.3,1394.415,905.863Z" transform="translate(-958.508 -489.732)" fill="#2fc4b2"/>
    <path id="Path_698" data-name="Path 698" d="M1292.852,953.536,1288.142,905c-3.245,0-17.109,8.725-17.109,8.725-.22-.449-11.835,20.756-15.031,28.65-.369.911-17.136-17.489-17.04-16.4,0,0-9.895,3.014-9.823,4.742s15.375,31.177,26.638,36.489c2.089.988,13.98-6.606,14.588-17.918l-1.533,27.876L1263.74,1039l24.871.038,3.619-57.616Z" transform="translate(-845.423 -492.111)" fill="#b2f0eb"/>
    <path id="Path_699" data-name="Path 699" d="M1476.255,898.37l-18.047,51.4c-.047,4.1-.952,20.55,0,37.956,1.291,23.64,4.561,49.04,4.561,47.617,0-.573,30.348,1.34,30.348,1.34l1.462-48.519s11.5-7.954,11.5-30.48c0-25.24-1.376-33.816-4.737-46.48C1500.854,909.382,1482.861,898.37,1476.255,898.37Z" transform="translate(-1011.129 -487.306)" fill="#b2f0eb"/>
    <path id="Path_700" data-name="Path 700" d="M1457.914,748.472c-2.945-.063-10.1-.311-10.77,4.891a135.273,135.273,0,0,0-.658,17.783,3.253,3.253,0,0,0,2.838,3.168l17.916,2.3a3.259,3.259,0,0,0,3.578-2.455c1.335-5.419,4.057-16.908,3.63-18.747C1472.992,749.152,1462.582,748.571,1457.914,748.472Z" transform="translate(-1002.919 -378.65)" fill="#093830"/>
    <path id="Path_701" data-name="Path 701" d="M1466.389,789.63c1.1-.881,2-4.806,2.686-9.328a.385.385,0,0,1,.226-.292,5.325,5.325,0,0,0,3.4-4.087c.206-1.954-1.255-1.726-2.441-1.241a.3.3,0,0,1-.407-.325c.614-5.48.928-10.313.928-10.313l-21.287-2.733s-.583,4.883-1.082,10.379c-.022.248-.8,13.407-.44,14.654a3.674,3.674,0,0,0,1.321,1.808s1.222,1.291,8.959,2.284Z" transform="translate(-1003.954 -387.971)" fill="#fff"/>
    <path id="Path_702" data-name="Path 702" d="M1457.175,789.638h-.052c-7.308-.939-8.929-2.15-9.179-2.383a4.059,4.059,0,0,1-1.445-2c-.391-1.354.416-14.681.427-14.808.493-5.439,1.076-10.341,1.082-10.388l.049-.416,22.085,2.835-.025.385c0,.05-.314,4.8-.911,10.162A2.392,2.392,0,0,1,1471.5,773a1.844,1.844,0,0,1,.55,1.756c-.275,2.67-2.617,3.972-3.628,4.4-.859,5.6-1.784,8.728-2.835,9.57a.413.413,0,0,1-.515-.644c.487-.394,1.467-2.095,2.535-9.069a.787.787,0,0,1,.468-.606c.867-.38,2.915-1.5,3.154-3.754.036-.358.03-.826-.212-1.01s-.873-.129-1.651.2a.7.7,0,0,1-.694-.091.721.721,0,0,1-.275-.663c.507-4.528.826-8.654.9-9.909l-20.516-2.618c-.151,1.294-.625,5.439-1.032,9.955-.044.515-.784,13.374-.457,14.5a3.256,3.256,0,0,0,1.181,1.6l.044.041s1.376,1.219,8.711,2.158a.414.414,0,0,1-.052.826Z" transform="translate(-1002.879 -386.76)" fill="#093830"/>
    <path id="Path_703" data-name="Path 703" d="M1495.052,808.355H1495a.686.686,0,0,1-.633-.738l.036-.443a.69.69,0,1,1,1.376.107l-.033.443A.688.688,0,0,1,1495.052,808.355Z" transform="translate(-1037.646 -420.75)" fill="#093830"/>
    <path id="Path_704" data-name="Path 704" d="M1461.073,804.849h-.083a.691.691,0,0,1-.6-.765l.063-.517a.693.693,0,1,1,1.376.16l-.061.52A.688.688,0,0,1,1461.073,804.849Z" transform="translate(-1013.02 -418.152)" fill="#093830"/>
    <path id="Path_705" data-name="Path 705" d="M1495.613,797.432a.4.4,0,0,1-.2-.052,4.758,4.758,0,0,0-3.372-.385.418.418,0,0,1-.517-.275.413.413,0,0,1,.275-.515,5.535,5.535,0,0,1,4.018.454.413.413,0,0,1-.2.773Z" transform="translate(-1035.576 -413.125)" fill="#093830"/>
    <path id="Path_706" data-name="Path 706" d="M1462.332,803.449a.414.414,0,0,1-.137-.025c-.308-.11-1.855-.7-1.907-1.651-.039-.7.055-.875,1.2-2.975.248-.454.551-1,.906-1.665a5.974,5.974,0,0,0,.528-2.174c0-.027-.077-.173-.4-.366a5.7,5.7,0,0,0-4.349-.4.413.413,0,1,1-.327-.757,6.533,6.533,0,0,1,5.114.454,1.369,1.369,0,0,1,.784,1.007,6.892,6.892,0,0,1-.6,2.585v.027c-.363.674-.666,1.228-.914,1.682-1.1,2.009-1.129,2.081-1.1,2.535,0,.248.74.694,1.357.911a.413.413,0,0,1-.138.8Z" transform="translate(-1010.987 -411.011)" fill="#093830"/>
    <path id="Path_707" data-name="Path 707" d="M1515.889,1205.4a.406.406,0,0,1-.248-.085l-13.693-10.4a.413.413,0,1,1,.5-.655l13.691,10.4a.413.413,0,0,1-.251.743Z" transform="translate(-1043.015 -701.685)" fill="#093830"/>
    <path id="Path_708" data-name="Path 708" d="M1376.909,1204.244a.413.413,0,0,1-.187-.782l14.731-7.475a.413.413,0,1,1,.374.735l-14.742,7.487A.416.416,0,0,1,1376.909,1204.244Z" transform="translate(-952.22 -702.967)" fill="#093830"/>
    <path id="Path_709" data-name="Path 709" d="M1418.909,899.8,1409,910.73l8.021,3.22-4.61,12.111,10.6,22.259a.083.083,0,0,0,.157-.044Z" transform="translate(-975.779 -488.343)" fill="#fff"/>
    <path id="Path_710" data-name="Path 710" d="M1421.233,946.217a.492.492,0,0,1-.446-.275l-10.674-22.416,4.528-11.888-8.191-3.289,10.924-12.069,4.352,49.406a.493.493,0,0,1-.361.52A.548.548,0,0,1,1421.233,946.217Zm-.33-.468Zm-9.9-22.27,9.733,20.439-4.024-45.69-8.863,9.79,7.844,3.151Z" transform="translate(-973.931 -485.792)" fill="#093830"/>
    <path id="Path_711" data-name="Path 711" d="M1479.135,898.37l9.562,14.486-10.787.939,2.422,12.832-18.3,20.39a.165.165,0,0,1-.275-.168Z" transform="translate(-1014.009 -487.306)" fill="#fff"/>
    <path id="Path_712" data-name="Path 712" d="M1460.809,945.045a.55.55,0,0,1-.3-.088.573.573,0,0,1-.24-.7l17.657-49.268,10.4,15.763-11.01.958,2.375,12.584-18.441,20.544A.567.567,0,0,1,1460.809,945.045Zm.237-.506Zm17.1-47.7-16.677,46.516,17.321-19.3-2.477-13.079,10.55-.919Z" transform="translate(-1012.907 -484.857)" fill="#093830"/>
    <path id="Path_713" data-name="Path 713" d="M1491.163,1164.674h-.019l-29.368-1.349-.1-.234c-2.571-5.78-4.8-52.918-4.891-54.922l.6-33.376a.413.413,0,0,1,.826.016l-.6,33.348c.022.457,2.257,47.746,4.729,54.365l28.851,1.327a.413.413,0,1,1-.019.826Z" transform="translate(-1010.409 -614.878)" fill="#093830"/>
    <path id="Path_714" data-name="Path 714" d="M1470.61,1145.074a1.214,1.214,0,1,0,.356-.859,1.216,1.216,0,0,0-.356.859Z" transform="translate(-1020.432 -665.227)" fill="#fff"/>
    <path id="Path_715" data-name="Path 715" d="M1470.717,1145.613a1.627,1.627,0,1,1,1.627-1.626A1.627,1.627,0,0,1,1470.717,1145.613Zm0-2.427a.8.8,0,1,0,.8.8.8.8,0,0,0-.8-.8Z" transform="translate(-1019.33 -664.14)" fill="#093830"/>
    <path id="Path_716" data-name="Path 716" d="M1377.551,1129.194H1353.33l.033-.443,7.432-99.508a.414.414,0,1,1,.826.063l-7.407,99.062h23.346a.413.413,0,1,1,0,.826Z" transform="translate(-935.432 -581.881)" fill="#093830"/>
    <path id="Path_717" data-name="Path 717" d="M1497.357,895.221l-5.75-4.481-11.888,4.833,3.812,4.55Z" transform="translate(-1027.034 -481.776)" fill="#2fc4b2"/>
    <path id="Path_718" data-name="Path 718" d="M1481.61,899.368l-4.36-5.2,12.633-5.136,6.532,5.089Zm-3-4.863,3.264,3.895,12.845-4.555-4.954-3.87Z" transform="translate(-1025.244 -480.537)" fill="#093830"/>
    <path id="Path_719" data-name="Path 719" d="M1432.02,897.69l4.007-4.25,9.121,4.09-3.438,4.195Z" transform="translate(-992.463 -483.733)" fill="#2fc4b2"/>
    <path id="Path_720" data-name="Path 720" d="M1439.958,900.918l-10.528-4.382,4.621-4.9,9.881,4.431Zm-9.105-4.679,8.855,3.688,2.9-3.54-8.362-3.749Z" transform="translate(-990.586 -482.429)" fill="#093830"/>
    <path id="Path_721" data-name="Path 721" d="M1466.246,912.85l-3.812-4.55-3.79,4.55,1.657,1.951-4.432,24.257,1.624,15,6.146-17.139-.16-21.739Z" transform="translate(-1009.749 -494.503)" fill="#0d5e52"/>
    <rect id="Rectangle_361" data-name="Rectangle 361" width="20.838" height="5.918" transform="translate(409.891 629.104)" fill="#0d5e52"/>
    <rect id="Rectangle_362" data-name="Rectangle 362" width="20.838" height="5.918" transform="translate(458.323 628.146)" fill="#0d5e52"/>
    <path id="Path_722" data-name="Path 722" d="M1453.494,737.589s-21.4,1.668-28.4-3.936c-4-3.2.958-10.525,4.621-10.988,2.752-.347,5.64,3.8,8.532,4.129,2.229.259,7.476,1.329,10.355,1.927C1454.443,729.9,1456.513,734.975,1453.494,737.589Z" transform="translate(-986.372 -359.948)" fill="#093830"/>
    <path id="Path_723" data-name="Path 723" d="M1521.894,1189.36l-25.774,11.411,8.78,17.943,25.344-11.489Z" transform="translate(-1038.92 -698.204)" fill="#fff"/>
    <path id="Path_724" data-name="Path 724" d="M1503.236,1217.856l-9.146-18.689,26.536-11.747,8.7,18.609Zm-8.026-18.281,8.414,17.2,24.6-11.15-8-17.12Z" transform="translate(-1037.449 -696.798)" fill="#093830"/>
    <path id="Path_725" data-name="Path 725" d="M1549.044,1124.583c-.493,4.277-3.578,11.835-5.86,15.081-1.1,1.588-4.839,7.363-5.23,8.832-.245.892,4.239-1.3,4.445-1.349l.275,1.682s.889.859,1.676.523c.671-.275,1.007-1.349,1.651-1.508a9.131,9.131,0,0,0,1.734.077c.551-.135.972-1.244,1.376-1.58.295-.248,1.357.187,1.83-.124.76-.5.468-1.558,1-1.927s1.263.38,2.111-.275-2.634-5.565-2.571-6.686c.231-3.922,16.1-25.793,8.257-40.821C1556.195,1089.781,1550.709,1110.111,1549.044,1124.583Z" transform="translate(-1069.233 -629.948)" fill="#fff"/>
    <path id="Path_726" data-name="Path 726" d="M1542.855,1148.774a2.624,2.624,0,0,1-1.577-.716l-.1-.1-.212-1.294h0c-3.231,1.451-3.98,1.555-4.354,1.233a.551.551,0,0,1-.162-.584c.435-1.6,4.341-7.6,5.3-8.962,2.2-3.121,5.293-10.608,5.78-14.891l.41.047-.41-.047c1.346-11.7,5.428-29.016,9.284-29.726.826-.154,1.558.358,2.166,1.525,5.986,11.45-1.651,26.941-5.742,35.261-1.343,2.725-2.4,4.877-2.455,5.78a11.619,11.619,0,0,0,1.2,2.689c1.25,2.384,1.927,3.757,1.206,4.3a1.952,1.952,0,0,1-1.651.294c-.2-.036-.388-.071-.46-.019a1.369,1.369,0,0,0-.223.55,2.05,2.05,0,0,1-.785,1.376,2,2,0,0,1-1.321.143,3.048,3.048,0,0,0-.493-.027,3.726,3.726,0,0,0-.374.523c-.3.468-.641,1-1.14,1.123a5.634,5.634,0,0,1-1.613-.044l-.168-.019a1.9,1.9,0,0,0-.573.578,2.619,2.619,0,0,1-.977.894A1.378,1.378,0,0,1,1542.855,1148.774Zm-.908-1.23c.212.171.729.531,1.131.361a2.046,2.046,0,0,0,.644-.638,2.112,2.112,0,0,1,1.076-.892,1.069,1.069,0,0,1,.413.016,6.4,6.4,0,0,0,1.321.063c.179-.044.468-.5.644-.768a3.308,3.308,0,0,1,.551-.729,1.449,1.449,0,0,1,1.1-.141,1.763,1.763,0,0,0,.782-.014,1.263,1.263,0,0,0,.432-.859,1.641,1.641,0,0,1,.55-1.057,1.341,1.341,0,0,1,1.074-.116,1.165,1.165,0,0,0,.985-.113c.088-.446-.842-2.2-1.4-3.284-.826-1.569-1.324-2.557-1.291-3.124.061-1.065,1.1-3.174,2.538-6.091,4.035-8.191,11.544-23.437,5.75-34.515-.421-.807-.851-1.175-1.283-1.1-1.338.248-3.168,4-4.891,10.03a125.6,125.6,0,0,0-3.724,18.992c-.506,4.4-3.685,12.072-5.934,15.27a74.933,74.933,0,0,0-5.053,8.362,21.122,21.122,0,0,0,3.259-1.274,4.954,4.954,0,0,1,.55-.24l.438-.11Z" transform="translate(-1068.131 -628.883)" fill="#093830"/>
    <path id="Path_727" data-name="Path 727" d="M1561.668,1061.69a35.391,35.391,0,0,0,14.087-24.5c2.017-16.688-5.23-44.614-5.23-44.614l-14.571,14.351s3.3,22.649,2.2,27.832-8.926,26.935-8.926,26.935Z" transform="translate(-1077.412 -555.586)" fill="#b2f0eb"/>
    <path id="Path_728" data-name="Path 728" d="M1560.211,1091.457H1547.22l.138-.518a112.23,112.23,0,0,1,4.594-13.176c2.2-5.571,4.129-10.379,4.517-15.513a70.157,70.157,0,0,0-4.068-28.573.413.413,0,1,1,.762-.311,71.082,71.082,0,0,1,4.129,28.947c-.4,5.257-2.425,10.355-4.572,15.755a114.849,114.849,0,0,0-4.426,12.562h11.918a.413.413,0,0,1,0,.826Z" transform="translate(-1075.955 -584.94)" fill="#093830"/>
    <path id="Path_729" data-name="Path 729" d="M1510.69,1032.31v8.265l12.711.025v-8.29Z" transform="translate(-1049.48 -584.38)" fill="#fff"/>
    <path id="Path_730" data-name="Path 730" d="M1522.733,1039.94l-13.533-.027v-9.083h13.533Zm-12.708-.85,11.882.022v-7.464h-11.882Z" transform="translate(-1048.4 -583.308)" fill="#093830"/>
    <path id="Path_731" data-name="Path 731" d="M1529.951,1027.009h-5.191a2.009,2.009,0,0,1,2.009-2.009h1.172A2.009,2.009,0,0,1,1529.951,1027.009Z" transform="translate(-1059.677 -579.083)" fill="#fff"/>
    <path id="Path_732" data-name="Path 732" d="M1529.277,1026.335h-6.017v-.413a2.425,2.425,0,0,1,2.422-2.422h1.172a2.425,2.425,0,0,1,2.422,2.422Zm-5.139-.826h4.261a1.6,1.6,0,0,0-1.544-1.183h-1.173A1.6,1.6,0,0,0,1524.138,1025.509Z" transform="translate(-1058.59 -577.995)" fill="#093830"/>
    <path id="Path_733" data-name="Path 733" d="M1526.765,1040.966h-7.982a.413.413,0,0,1,0-.826h7.982a.413.413,0,0,1,0,.826Z" transform="translate(-1055.046 -590.055)" fill="#093830"/>
    <path id="Path_734" data-name="Path 734" d="M1528.458,1048.966h-5.345a.413.413,0,0,1,0-.826h5.345a.413.413,0,1,1,0,.826Z" transform="translate(-1058.184 -595.853)" fill="#093830"/>
    <path id="Path_735" data-name="Path 735" d="M1515.125,964.578a3.028,3.028,0,1,1-3.028-3.028A3.028,3.028,0,0,1,1515.125,964.578Z" transform="translate(-1048.306 -533.097)" fill="#ebf4fe"/>
    <path id="Path_736" data-name="Path 736" d="M1510.976,966.922a3.446,3.446,0,1,1,3.446-3.446,3.446,3.446,0,0,1-3.446,3.446Zm0-6.055a1.087,1.087,0,1,0,0-.019Z" transform="translate(-1047.19 -531.995)" fill="#093830"/>
    <path id="Path_737" data-name="Path 737" d="M1415.654,964.1l-.8-.215c.438-1.613.275-13.487-2.94-17.481a2.87,2.87,0,0,0-2.45-1.258,2.95,2.95,0,0,0-2.114,1.1c-3.267,3.688-2.538,15.036-2.529,15.138l-.826.055c-.033-.479-.76-11.808,2.733-15.755a3.781,3.781,0,0,1,2.689-1.376,3.688,3.688,0,0,1,3.138,1.561C1416.006,950.141,1416.122,962.364,1415.654,964.1Z" transform="translate(-972.093 -520.594)" fill="#093830"/>
    <path id="Path_738" data-name="Path 738" d="M1442.15,1015.045a.928.928,0,1,1,.925-.927.928.928,0,0,1-.925.927Zm0-1.027a.1.1,0,0,0-.1.1.1.1,0,0,0,.1.1.1.1,0,0,0,.1-.1A.1.1,0,0,0,1442.15,1014.019Z" transform="translate(-999.131 -570.523)" fill="#0d5e52"/>
    <path id="Path_739" data-name="Path 739" d="M1402.99,1006.425a.928.928,0,1,1,.925-.925.928.928,0,0,1-.925.925Zm0-1.027a.1.1,0,0,0-.1.1.1.1,0,0,0,.1.1.1.1,0,0,0,.1-.1A.1.1,0,0,0,1402.99,1005.4Z" transform="translate(-970.749 -564.276)" fill="#0d5e52"/>
    <path id="Path_740" data-name="Path 740" d="M1423.367,898.09l-.787-.256a46.816,46.816,0,0,0,2.064-11.458c.058-2.436,1.429-5.563,7.654-6.606l.138.826c-4.552.771-6.895,2.73-6.966,5.821A48.183,48.183,0,0,1,1423.367,898.09Z" transform="translate(-985.621 -473.826)" fill="#093830"/>
    <path id="Path_741" data-name="Path 741" d="M1519.443,904.177l-.743-.358c.077-.165,7.833-16.514.8-20.973l.44-.7C1527.59,886.983,1519.779,903.478,1519.443,904.177Z" transform="translate(-1055.286 -475.551)" fill="#093830"/>
    <path id="Path_742" data-name="Path 742" d="M1444.74,817.57s-2.174,9,.4,11.318,13.523,3.578,15.488,2.717,5.428-11.04,5.428-11.04-4.368,1.651-6.79,1.635-8.433.072-11.167-1.621A15.076,15.076,0,0,1,1444.74,817.57Z" transform="translate(-1001.06 -428.746)" fill="#093830"/>
    <path id="Path_743" data-name="Path 743" d="M1467.842,836.166c.143.65-1.781,2.618-3.432,2.32-2.7-.482-2.918-3.366-2.3-3.094a5.568,5.568,0,0,0,2.672,1.3C1466.535,836.95,1467.746,835.725,1467.842,836.166Z" transform="translate(-1014.064 -441.649)" fill="#fff"/>
    <path id="Path_744" data-name="Path 744" d="M633.448,1771.826H153.623a.413.413,0,1,1,0-.826H633.448a.413.413,0,0,1,0,.826Z" transform="translate(-65.634 -1119.753)" fill="#093830"/>
    <path id="Path_745" data-name="Path 745" d="M524.55,989.093l.622-11.343h12.3l3.606,13.206Z" transform="translate(-334.766 -544.838)" fill="#fff"/>
    <path id="Path_746" data-name="Path 746" d="M333.874,1571l-9.295,40.105-12.859,11.772,21.381-3.584-.961-8.769,21.381-40.213Z" transform="translate(-180.516 -974.301)" fill="#093830"/>
    <path id="Path_747" data-name="Path 747" d="M307,1622.362l13.792-12.628,9.328-40.29,20.676-.724-21.656,40.736.991,9.031Zm23.792-52.114-9.254,39.91-11.932,10.935,19.619-3.3-.93-8.508.058-.113,21.034-39.574Z" transform="translate(-177.095 -973.148)" fill="#0d5e52"/>
    <path id="Path_748" data-name="Path 748" d="M569.06,1570.31l-2.089,40.793,12.857,11.772-21.381-3.584.961-8.769-5.447-40.213Z" transform="translate(-356.081 -974.301)" fill="#093830"/>
    <path id="Path_749" data-name="Path 749" d="M579.888,1622.427l-23.142-3.878,1-9.108-5.5-40.631h16.008l-2.1,41.036Zm-22.234-4.572,19.619,3.3L565.3,1610.2l2.078-40.554H553.187l5.389,39.794Z" transform="translate(-354.835 -973.214)" fill="#0d5e52"/>
    <path id="Path_750" data-name="Path 750" d="M567.72,1724.857c-1.035,7.668,1.241,12.512,1.241,12.512h1.96l.581-5.684,7.363,5.73,15.81-.041v-1.786s-5.5-3.793-6.1-2.579C586.739,1736.747,568.3,1720.539,567.72,1724.857Z" transform="translate(-365.858 -1085.776)" fill="#0d5e52"/>
    <path id="Path_751" data-name="Path 751" d="M415.836,1275.905l-92.726-1.376s37.314-84.249,42.035-103.224a71.056,71.056,0,0,1,3.906-11.907c3.174-7.021,5.7-6.988,5.7-6.988l29.47.275s5.384,2.879,8.1,16.374c.085.429.171.867.25,1.318C415.195,1185.018,415.836,1275.905,415.836,1275.905Z" transform="translate(-188.771 -671.424)" fill="#0d5e52"/>
    <path id="Path_752" data-name="Path 752" d="M320.254,1724.857c1.035,7.668-1.239,12.512-1.239,12.512h-1.96l-.584-5.684-7.242,5.73-15.931-.041v-1.786s5.5-3.793,6.1-2.579C301.235,1736.747,319.671,1720.539,320.254,1724.857Z" transform="translate(-167.166 -1085.776)" fill="#0d5e52"/>
    <path id="Path_753" data-name="Path 753" d="M482.735,816.631s4.993.275,9.259,7.77c3.507,6.16,2.029,14.781.952,18.166-.633,1.993-.636,15.5-1,17.566-2.034,11.632,2.185-.027,2.2,0,1.5,2.287-1.032,2.612-2.329,4-1.855,1.987-.707-1.962-.184.275,1.891,8.062,7.291,10.734,7.291,10.734l-45.613.05s-2.155-30,5-44.366c1.17-2.351-2.629,20.093-1.756,17.2.595-1.982-1.335-7.657.361-9.856,3.1-4.013,5.307-3.647,5.268-8.563C462.172,826.966,466.375,812.582,482.735,816.631Z" transform="translate(-282.919 -427.548)" fill="#093830"/>
    <path id="Path_754" data-name="Path 754" d="M554.31,948.7s-11.367-4.283-14.863-4.459.116,4.459.116,4.459l12.576,5.626Z" transform="translate(-344.458 -520.545)" fill="#fff"/>
    <path id="Path_755" data-name="Path 755" d="M551.3,953.8l-13.068-5.849-.063-.08c-.385-.5-2.268-3.028-1.566-4.376.275-.55.884-.793,1.8-.746,3.518.176,14.522,4.3,14.99,4.47l.391.149Zm-12.543-6.518,12.086,5.408,1.863-4.833c-2.023-.749-11.318-4.129-14.348-4.285-.383-.019-.875.019-1.024.3-.33.639.614,2.345,1.423,3.408Z" transform="translate(-343.388 -519.463)" fill="#093830"/>
    <path id="Path_756" data-name="Path 756" d="M496.877,907.56s.583,14.387.036,15.138c-1.88,2.59-7.451,4.872-8.722,5.213s20.789,8.758,20.789,8.758l10.591-5.191-4.082-3.677a23.971,23.971,0,0,1-4.954-3.284c-1.522-1.558-2.24-16.2-2.24-16.2Z" transform="translate(-308.376 -493.967)" fill="#fff"/>
    <path id="Path_757" data-name="Path 757" d="M507.911,935.987l-.168-.063c-.052-.019-5.285-2.018-10.443-4.079-10.7-4.277-10.688-4.613-10.666-5.04a.471.471,0,0,1,.358-.424c1.442-.388,6.719-2.637,8.48-5.037.333-.87.116-9.587-.1-14.9l-.019-.46,12.256.826.019.366c.275,5.6,1.1,14.863,2.125,15.928a23.35,23.35,0,0,0,4.831,3.2l.049.025,4.575,4.129Zm-20-9.039c2.535,1.346,13.1,5.521,19.958,8.139l9.881-4.841-3.578-3.237a23.324,23.324,0,0,1-5-3.341c-1.456-1.506-2.2-13.487-2.34-16.1l-10.608-.707c.182,4.588.493,14.186-.061,14.946-1.726,2.356-6.262,4.409-8.254,5.131Z" transform="translate(-307.285 -492.822)" fill="#093830"/>
    <path id="Path_758" data-name="Path 758" d="M511.572,865.743c-1.5-1.376-4.076-4.071-3.812-6.27s2.717-1.555,3.427-1.1c.471.311,1.652-10.712,1.652-10.712L529.9,849.4s1.035,9.8-.515,15.749-4.586,7.1-9.031,6.606a10.459,10.459,0,0,1-5.1-1.894Z" transform="translate(-322.584 -450.554)" fill="#fff"/>
    <path id="Path_759" data-name="Path 759" d="M521.066,871.1a16.531,16.531,0,0,1-1.8-.11,10.95,10.95,0,0,1-5.293-1.971.413.413,0,0,1,.484-.669,10.145,10.145,0,0,0,4.9,1.819c4.164.46,7.054-.432,8.585-6.306,1.357-5.2.7-13.509.55-15.268l-16.33-1.668c-1.129,10.31-1.577,10.522-1.819,10.638a.457.457,0,0,1-.44-.03,2.655,2.655,0,0,0-2.141-.275,1.215,1.215,0,0,0-.65,1.057c-.173,1.459,1.17,3.617,3.683,5.918a.413.413,0,1,1-.551.608c-1.949-1.784-4.214-4.379-3.944-6.625a2,2,0,0,1,1.12-1.706,3.334,3.334,0,0,1,2.549.116c.344-1.274.963-5.978,1.423-10.209l.044-.407,17.816,1.819.036.333c.041.4,1.027,9.944-.526,15.9C527.253,869.818,524.289,871.1,521.066,871.1Z" transform="translate(-321.525 -449.358)" fill="#093830"/>
    <path id="Path_760" data-name="Path 760" d="M493.578,977.22c6.231,4.938,22.74,28.983,22.311,31.13-2.2,10.985-21.422,16.1-21.422,16.1l-4.9-7.743,9.744-5.651-6.485-8.912-1.145,21.469-11.447.2s-22.6,1.134-28.171-3.253c-8.293-6.537-12.072-33-3.2-42.112,2.992-3.1,5.648-3.41,7.115-3.41,4.4,0,23.715,17.891,29.176.22C485.926,972.711,491.893,975.885,493.578,977.22Z" transform="translate(-276.218 -542.337)" fill="#b2f0eb"/>
    <path id="Path_761" data-name="Path 761" d="M574.188,888.787h-.016a.688.688,0,0,1-.672-.7v-.55a.688.688,0,0,1,.688-.672h.016a.688.688,0,0,1,.672.7v.551a.691.691,0,0,1-.688.672Z" transform="translate(-370.243 -478.964)" fill="#093830"/>
    <path id="Path_762" data-name="Path 762" d="M546.617,885.7H546.6a.688.688,0,0,1-.672-.7l.014-.55a.677.677,0,0,1,.7-.669.688.688,0,0,1,.677.694l-.014.55a.685.685,0,0,1-.694.68Z" transform="translate(-350.261 -476.731)" fill="#093830"/>
    <path id="Path_763" data-name="Path 763" d="M539.453,877.222a.413.413,0,0,1-.162-.8,4.8,4.8,0,0,1,3.509-.014.413.413,0,0,1-.325.757h0a4.038,4.038,0,0,0-2.863.019A.415.415,0,0,1,539.453,877.222Z" transform="translate(-345.263 -471.157)" fill="#093830"/>
    <path id="Path_764" data-name="Path 764" d="M564.2,886.781a1.572,1.572,0,0,1-.826-.193l-.206-.16.041-.275a.413.413,0,0,1,.49-.317.391.391,0,0,1,.171.08,1.252,1.252,0,0,0,.881-.1.575.575,0,0,0,.212-.55,7.273,7.273,0,0,0-.256-1.351c-.088-.366-.19-.776-.275-1.252-.295-1.451-.289-2.227.019-2.678a1.252,1.252,0,0,1,.925-.487l.138-.028a7.41,7.41,0,0,1,3.218.583.413.413,0,0,1-.306.768,6.816,6.816,0,0,0-2.752-.55l-.16.03c-.237.044-.336.066-.385.138-.088.132-.193.572.107,2.051.094.46.193.864.275,1.219a7.812,7.812,0,0,1,.275,1.522,1.376,1.376,0,0,1-.724,1.357A1.892,1.892,0,0,1,564.2,886.781ZM564.01,886.327Zm0-.039v0Z" transform="translate(-362.756 -473.579)" fill="#093830"/>
    <path id="Path_765" data-name="Path 765" d="M584.09,1187.86l14.354,2.229Z" transform="translate(-377.918 -697.117)" fill="#fff"/>
    <path id="Path_766" data-name="Path 766" d="M597.344,1189.409h-.063l-14.354-2.227a.418.418,0,1,1,.127-.826l14.354,2.229a.414.414,0,1,1-.063.826Z" transform="translate(-376.818 -696.024)" fill="#0e2549"/>
    <path id="Path_767" data-name="Path 767" d="M565.336,1034.174h-.069a.41.41,0,0,1-.339-.473c2.711-16.313-3.069-26.046-3.127-26.148a.413.413,0,0,1,.7-.429c.061.1,6,10.1,3.237,26.7A.413.413,0,0,1,565.336,1034.174Z" transform="translate(-361.727 -565.992)" fill="#093830"/>
    <path id="Path_768" data-name="Path 768" d="M534.38,844.407s-17.046,1.855-21.073,9.237a2.782,2.782,0,0,0-1.272-.38,2.719,2.719,0,0,0-1.376.228l2.6-12.892Z" transform="translate(-324.699 -445.437)" fill="#093830"/>
    <path id="Path_769" data-name="Path 769" d="M549.81,911.079s3.3,3.853,5.67.5a2.271,2.271,0,0,0-2.163-.3A5.976,5.976,0,0,0,549.81,911.079Z" transform="translate(-353.074 -496.409)" fill="#e2474b"/>
    <path id="Path_770" data-name="Path 770" d="M511.456,946.69s3.284,4.1,2.2,3.853a8.215,8.215,0,0,1-1.621-.575.151.151,0,0,0-.187.228c.716,1,2.059,3.141.939,3.829-1.478.906-4.941-1.032-5.037-2.992C507.668,949.253,507.613,947.326,511.456,946.69Z" transform="translate(-322.575 -522.327)" fill="#fff"/>
    <path id="Path_771" data-name="Path 771" d="M510.777,953.5a4.612,4.612,0,0,1-2.1-.592c-1.073-.57-2.351-1.7-2.414-3.028-.085-1.72-.2-4.076,4.046-4.778l.239-.039.149.19c2.871,3.578,2.573,4.063,2.43,4.294a.564.564,0,0,1-.636.228,6.763,6.763,0,0,1-.9-.275,4.425,4.425,0,0,1,.928,2.838,1.286,1.286,0,0,1-.595.859A2.186,2.186,0,0,1,510.777,953.5Zm-.57-7.536c-3.278.611-3.2,2.2-3.121,3.881a3.337,3.337,0,0,0,1.976,2.331,2.734,2.734,0,0,0,2.433.328.454.454,0,0,0,.217-.316c.113-.551-.366-1.651-1.277-2.92a.567.567,0,0,1,.7-.842,8.538,8.538,0,0,0,1.1.429A24.875,24.875,0,0,0,510.207,945.96Z" transform="translate(-321.494 -521.145)" fill="#093830"/>
    <path id="Path_772" data-name="Path 772" d="M537.82,1169.049a6.445,6.445,0,0,0-2.648,3.143c-2.664,5.472-5.56,3.028-5.56,3.028l.107-5.857h-2.1a3.659,3.659,0,0,0-4.6,1.72,6.664,6.664,0,0,1-5.56,3.319c-.828.017,1.354-18.455,1.354-18.455l-22.548.141c2.095-3.708,3.98-3.708,3.98-3.708l29.47.275S535.1,1155.554,537.82,1169.049Z" transform="translate(-314.27 -671.402)" fill="#093830"/>
    <path id="Path_773" data-name="Path 773" d="M645.967,1062.81s4.679,7.883,2.907,10.8a26.222,26.222,0,0,1-16.27,11.58s-3.124-11.59-2.706-11.995S645.967,1062.81,645.967,1062.81Z" transform="translate(-411.091 -606.486)" fill="#b2f0eb"/>
    <path id="Path_774" data-name="Path 774" d="M613.763,1198.55s-3.108,9.157,0,10.14,5.56-10.14,5.56-10.14Z" transform="translate(-398.423 -704.865)" fill="#289c8e"/>
    <path id="Path_775" data-name="Path 775" d="M569.633,1195.58s-3.107,9.157,0,10.14,5.56-10.14,5.56-10.14Z" transform="translate(-366.44 -702.712)" fill="#289c8e"/>
    <path id="Path_776" data-name="Path 776" d="M581.01,1063.241s-12.92,7.36-12.755,13.9.652,23.4.652,23.4h8.667v1.307h12.43s-2.29-16.515,0-20.6,8.976-7.486,8.976-8.139.457-10.253.457-10.253Z" transform="translate(-366.441 -606.515)" fill="#289c8e"/>
    <path id="Path_777" data-name="Path 777" d="M629.454,883.083c-2.089-.206-7.156-.768-7.916,2.89a96.332,96.332,0,0,0-1.429,12.592,2.318,2.318,0,0,0,1.844,2.4l12.6,2.6a2.317,2.317,0,0,0,2.673-1.55c1.241-3.776,3.8-11.786,3.592-13.115C640.123,884.383,632.763,883.408,629.454,883.083Z" transform="translate(-404.021 -476.113)" fill="#093830"/>
    <path id="Path_778" data-name="Path 778" d="M623.4,944.805s-.476,6.848-2.392,8.483a12.533,12.533,0,0,1-4.773,2.318c-.49.162,2.37,5.23,2.37,5.23l15.62-3.273s-4.58-3.108-4.4-4.822,2.752-7.941,2.752-7.941Z" transform="translate(-401.172 -520.957)" fill="#fff"/>
    <path id="Path_779" data-name="Path 779" d="M617.322,960.2l-.149-.275c-2.719-4.817-2.51-5.359-2.441-5.538a.487.487,0,0,1,.3-.289l.289-.085a11.365,11.365,0,0,0,4.346-2.155c1.462-1.247,2.117-6.331,2.246-8.2l.028-.383h10.184l-.239.573c-.025.06-2.574,6.182-2.728,7.82-.1,1.016,2.419,3.209,4.236,4.442l.8.551Zm-1.767-5.386a32.874,32.874,0,0,0,2.2,4.453l14.4-3.028c-1.415-1.049-3.961-3.152-3.818-4.654.14-1.461,1.9-5.893,2.554-7.487h-8.186c-.135,1.5-.729,6.881-2.5,8.384A12.418,12.418,0,0,1,615.555,954.818Z" transform="translate(-400.102 -519.855)" fill="#093830"/>
    <path id="Path_780" data-name="Path 780" d="M603.85,962.622c-1.963,2.02-7.707,4.129-9.683.2s-9.934-7.528-9.934-7.528l-3.474,5.94,3.427,3.124s1.472,21.26,4.987,22.895,20.456.98,20.456.98l-.754-12.936,6.881-.135s-2.6-12.193-5-13.677C606.7,958.965,604.791,961.654,603.85,962.622Z" transform="translate(-375.505 -528.56)" fill="#8de5db"/>
    <path id="Path_781" data-name="Path 781" d="M656.759,1022.255s1.99,6.281,1.781,10.357c-.228,4.423-2.106,6.65-3,7.382-1.134.936-5.992,1.652-5.615,2.995s1.957-.118,2.571.08c.3.1-5.546,3.083-2.587,4.39s9.212-4.7,9.757-5.9c.275-.586,3.468-2.876,4.506-7.635,1.084-4.984,0-12.43,0-12.43Z" transform="translate(-425.015 -576.539)" fill="#fff"/>
    <path id="Path_782" data-name="Path 782" d="M649.686,1046.894a2.69,2.69,0,0,1-1.1-.212,1.552,1.552,0,0,1-1.079-1.233c-.083-.889.826-1.789,1.91-2.623a1.051,1.051,0,0,1-.462-.1,1.153,1.153,0,0,1-.583-.776c-.339-1.219,1.511-1.833,3.468-2.477a9.308,9.308,0,0,0,2.284-.941c.432-.358,2.6-2.373,2.846-7.087.2-3.953-1.74-10.148-1.762-10.212l-.138-.482,8.312-.856.055.394c.047.306,1.084,7.575,0,12.576a14.542,14.542,0,0,1-4.046,7.173,5.8,5.8,0,0,0-.49.55C658.386,1041.695,653.118,1046.894,649.686,1046.894Zm1.539-5.414a.919.919,0,0,1,.256.038l.245.08.047.275c.044.3-.116.407-.779.859-.743.509-2.725,1.858-2.651,2.651.016.2.217.385.592.551,2.6,1.151,8.681-4.525,9.215-5.7a3.517,3.517,0,0,1,.641-.774,13.815,13.815,0,0,0,3.834-6.779c.917-4.208.248-10.3.047-11.888l-6.5.658c.462,1.566,1.83,6.531,1.651,10.022-.253,4.932-2.477,7.126-3.143,7.679a9.678,9.678,0,0,1-2.552,1.1c-.994.327-3.061,1.013-2.931,1.475a.429.429,0,0,0,.151.259c.179.085.625-.1.95-.231a2.658,2.658,0,0,1,.919-.281Z" transform="translate(-423.876 -575.379)" fill="#093830"/>
    <path id="Path_783" data-name="Path 783" d="M600.79,1116.29a.41.41,0,0,1-.413-.407c0-.162-.245-16.36.063-23.445.316-7.341,7.244-10.154,7.313-10.184a.413.413,0,1,1,.3.768c-.063.025-6.5,2.653-6.793,9.449-.306,7.063-.063,23.236-.061,23.4a.413.413,0,0,1-.407.418Z" transform="translate(-389.656 -620.554)" fill="#093830"/>
    <path id="Path_784" data-name="Path 784" d="M600.919,1110.057s4.954,1.285,7.707,0,2.392-3.595,3.578-3.174.162,2.953.162,2.953,1.671.256,5.9-3.289c.55-.46,1.274,3.713-.1,5.345a9.884,9.884,0,0,1-7.522,3.944c-3.853.091-11.1.55-11.1.55Z" transform="translate(-389.116 -638.159)" fill="#fff"/>
    <path id="Path_785" data-name="Path 785" d="M597.66,1115.747l1.585-7.283.416.107c.047,0,4.844,1.23,7.432.025a4.815,4.815,0,0,0,2.29-2.227c.344-.594.735-1.269,1.6-.963a1.184,1.184,0,0,1,.694.65,3.645,3.645,0,0,1-.066,2.2c.762-.2,2.37-.878,5.034-3.11a.551.551,0,0,1,.762.049c.633.636,1.068,4.275-.275,5.879a10.29,10.29,0,0,1-7.831,4.09c-3.8.091-11.01.551-11.084.551Zm2.2-6.278-1.17,5.386c1.762-.107,7.368-.44,10.572-.517a9.48,9.48,0,0,0,7.217-3.8c.966-1.145.727-3.749.435-4.555-4.071,3.35-5.78,3.2-5.981,3.174l-.515-.08.2-.484a3.756,3.756,0,0,0,.3-2.2.36.36,0,0,0-.217-.209c-.173-.061-.22-.077-.611.6a5.6,5.6,0,0,1-2.656,2.563c-2.4,1.129-6.281.413-7.561.129Z" transform="translate(-387.753 -637.076)" fill="#093830"/>
    <path id="Path_786" data-name="Path 786" d="M555.162,1107.72l-.592,12.5,17.4-.319v-11.07Z" transform="translate(-356.523 -639.035)" fill="#b2f0eb"/>
    <path id="Path_787" data-name="Path 787" d="M535.11,1070.512h-.03c-2.783-.2-27.249-1.952-29.492-4.008s-1.88-10.889-1.828-11.888a.418.418,0,0,1,.435-.388.413.413,0,0,1,.391.432c-.14,2.6-.129,9.689,1.561,11.235,1.536,1.409,18.166,3.027,28.991,3.793a.413.413,0,1,1-.028.826Z" transform="translate(-319.66 -600.266)" fill="#093830"/>
    <path id="Path_788" data-name="Path 788" d="M671.55,997.63c.184.639,0,6.606,0,6.606l10,.471-2.342-8.637Z" transform="translate(-441.306 -558.115)" fill="#8de5db"/>
    <path id="Path_789" data-name="Path 789" d="M678.346,1005.222h-.019l-11.2-.487,1.36-8.169a.418.418,0,1,1,.826.135l-1.208,7.25,10.269.449a.413.413,0,0,1-.019.826Z" transform="translate(-438.102 -558.22)" fill="#093830"/>
    <path id="Path_790" data-name="Path 790" d="M653.893,1108.77a7.853,7.853,0,0,1-5.843,4.316Z" transform="translate(-424.274 -639.796)" fill="#fff"/>
    <path id="Path_791" data-name="Path 791" d="M646.9,1112.449a.414.414,0,1,1-.047-.826,7.428,7.428,0,0,0,5.5-4.076.413.413,0,0,1,.754.339,8.2,8.2,0,0,1-6.171,4.558Z" transform="translate(-423.123 -638.732)" fill="#093830"/>
    <path id="Path_792" data-name="Path 792" d="M654.808,1115.64s-2.117,3.683-5.808,4.027Z" transform="translate(-424.962 -644.775)" fill="#fff"/>
    <path id="Path_793" data-name="Path 793" d="M647.865,1119.061a.413.413,0,1,1-.036-.826c3.438-.319,5.464-3.785,5.483-3.82a.416.416,0,0,1,.718.413c-.091.157-2.265,3.87-6.127,4.23Z" transform="translate(-423.827 -643.756)" fill="#093830"/>
    <path id="Path_794" data-name="Path 794" d="M634.55,905.673c1.547-.768,4.291-2.37,4.594-4.228s-1.858-1.91-2.546-1.7c-.457.143,1.161-9.149,1.161-9.149L623.392,888s-3.154,7.765-3.286,12.991,2.075,6.881,5.827,7.531a8.912,8.912,0,0,0,4.6-.344Z" transform="translate(-404.017 -479.79)" fill="#fff"/>
    <path id="Path_795" data-name="Path 795" d="M626.554,907.871a10.709,10.709,0,0,1-1.775-.154c-3.3-.55-6.331-1.927-6.165-7.949.132-5.23,3.185-12.818,3.3-13.137l.127-.311,15.113,2.728-.069.4c-.617,3.531-1.195,7.412-1.239,8.6a2.86,2.86,0,0,1,2.089.531,1.753,1.753,0,0,1,.534,1.715c-.311,1.927-2.791,3.526-4.817,4.531a.413.413,0,0,1-.366-.74c2.579-1.28,4.17-2.708,4.368-3.925a.974.974,0,0,0-.262-.958,2.211,2.211,0,0,0-1.753-.275.438.438,0,0,1-.427-.091c-.193-.168-.512-.449.988-9.119l-13.635-2.463c-.581,1.495-3.028,8.032-3.135,12.537-.127,5.117,2,6.515,5.483,7.112a8.557,8.557,0,0,0,4.4-.33.413.413,0,0,1,.275.776A8.874,8.874,0,0,1,626.554,907.871Z" transform="translate(-402.934 -478.573)" fill="#093830"/>
    <path id="Path_796" data-name="Path 796" d="M621.578,875.547c-1.888-.506-5.34-1.99-4.175-5.675s1.613-2.169,1.613-2.169.606,1,.9,1.1-.369.176,1.3-2.733c0,0,2.942.063,3.785,2.1s1.927,1.23,2.576.435c.55-.674,1.533.55,1.6,1.376.253.963,4.693,1.431,5.838,2.353,1.817,1.456,2.428,2.037,1.806,4.718-.121.515-2,5.384-2,5.384l-.52-5.637S624.663,876.375,621.578,875.547Z" transform="translate(-401.892 -463.897)" fill="#093830"/>
    <circle id="Ellipse_166" data-name="Ellipse 166" cx="1.514" cy="1.514" r="1.514" transform="translate(197.4 448.962)" fill="#fff"/>
    <path id="Path_797" data-name="Path 797" d="M552.647,1038.413a1.927,1.927,0,1,1,1.927-1.927A1.927,1.927,0,0,1,552.647,1038.413Zm0-3.028a1.1,1.1,0,1,0,1.1,1.1A1.1,1.1,0,0,0,552.647,1035.386Z" transform="translate(-353.733 -586.011)" fill="#093830"/>
    <circle id="Ellipse_167" data-name="Ellipse 167" cx="1.514" cy="1.514" r="1.514" transform="translate(198.291 457.321)" fill="#fff"/>
    <path id="Path_798" data-name="Path 798" d="M555.927,1068.783a1.927,1.927,0,1,1,1.927-1.927,1.927,1.927,0,0,1-1.927,1.927Zm0-3.028a1.1,1.1,0,1,0,1.1,1.1A1.1,1.1,0,0,0,555.927,1065.756Z" transform="translate(-356.11 -608.022)" fill="#093830"/>
    <path id="Path_799" data-name="Path 799" d="M629.713,922.2a.553.553,0,0,1-.526-.71l.143-.465a.55.55,0,1,1,1.051.322l-.14.465A.551.551,0,0,1,629.713,922.2Z" transform="translate(-410.586 -503.426)" fill="#093830"/>
    <path id="Path_800" data-name="Path 800" d="M653.141,927.4a.55.55,0,0,1-.526-.713l.14-.462a.55.55,0,0,1,1.049.322l-.138.468A.55.55,0,0,1,653.141,927.4Z" transform="translate(-427.565 -507.242)" fill="#093830"/>
    <path id="Path_801" data-name="Path 801" d="M655.712,919.078a.416.416,0,0,1-.275-.1,3.358,3.358,0,0,0-2.3-.784.418.418,0,0,1-.443-.377.41.41,0,0,1,.377-.446,4.205,4.205,0,0,1,2.915,1,.413.413,0,0,1-.275.724Z" transform="translate(-427.64 -501.072)" fill="#093830"/>
    <path id="Path_802" data-name="Path 802" d="M635.124,930.309c-.473,0-1.206-.713-1.214-.721a1.045,1.045,0,0,1-.35-1.14,1.073,1.073,0,0,1,.65-.614,1.291,1.291,0,0,0,.677-.619.413.413,0,1,1,.716.413,2.1,2.1,0,0,1-1.046.955c-.187.085-.2.1-.228.162,0,.168.534.611.826.735h.025a.41.41,0,0,1,.363.454.424.424,0,0,1-.275.352.36.36,0,0,1-.143.022Zm.063-.809Z" transform="translate(-413.731 -508.063)" fill="#093830"/>
    <path id="Path_803" data-name="Path 803" d="M631.9,913.156a.406.406,0,0,1-.212-.058,3.494,3.494,0,0,0-2.293-.6.414.414,0,0,1-.187-.806,4.315,4.315,0,0,1,2.9.694.413.413,0,0,1-.212.768Z" transform="translate(-410.384 -496.937)" fill="#093830"/>
    <path id="Path_804" data-name="Path 804" d="M632.442,941.724c.1.435-1.4,1.478-2.653,1.1-2.042-.628-2.158-2.508-1.693-2.262a5.28,5.28,0,0,0,2.009,1.148C631.432,942.076,632.376,941.429,632.442,941.724Z" transform="translate(-409.649 -517.87)" fill="#093830"/>
    <path id="Path_805" data-name="Path 805" d="M1065.136,1638.683a10.561,10.561,0,0,0-19.289-3.028l-11.112,18.232a10.574,10.574,0,1,0,18.056,11.01l11.111-18.232A10.5,10.5,0,0,0,1065.136,1638.683Zm-13.049,25.793a9.746,9.746,0,1,1-16.644-10.145l5.34-8.763,16.644,10.145Zm11.109-18.232-5.34,8.764-16.644-10.145,5.343-8.764a9.746,9.746,0,1,1,16.642,10.146Z" transform="translate(-703.406 -1017.987)" fill="#093830"/>
    <path id="Path_806" data-name="Path 806" d="M492.682,828.176s-22.008,3.108-15.557,18.628c3.644,8.791,12.3,12.036,12.3,12.036s12.127-31.829,3.853,20.406c-2.119,13.355-19.7-20.013-28.953-17.445s-9.072-39.051,13.352-44.462" transform="translate(-286.943 -428.579)" fill="#093830"/>
    <path id="Path_807" data-name="Path 807" d="M569.63,845.11s6.686,6.3,6.055,13.7,1.057-10.833,1.057-10.833l-5.626-3.275Z" transform="translate(-367.438 -448.408)" fill="#093830"/>
    <path id="Path_808" data-name="Path 808" d="M526.166,939s-7.649,11.483-14.723,10.1c-5.315-1.043,4.473,9.2,8.483,12.581,1.418,1.195.578,2.915,2.084,1.836a28.581,28.581,0,0,0,11.56-22.506" transform="translate(-324.147 -516.753)" fill="#093830"/>
  </g>
</svg>
