<svg xmlns="http://www.w3.org/2000/svg" width="41.504" height="41.503" viewBox="0 0 41.504 41.503">
  <path id="instagram" d="M23.751,3c-5.636,0-6.341.025-8.555.125a15.272,15.272,0,0,0-5.037.966,10.6,10.6,0,0,0-6.07,6.069A15.3,15.3,0,0,0,3.123,15.2C3.024,17.409,3,18.115,3,23.751s.024,6.341.125,8.555a15.272,15.272,0,0,0,.966,5.037,10.6,10.6,0,0,0,6.07,6.07,15.3,15.3,0,0,0,5.037.966c2.213.1,2.92.125,8.555.125s6.341-.025,8.555-.125a15.272,15.272,0,0,0,5.037-.966,10.6,10.6,0,0,0,6.07-6.07,15.3,15.3,0,0,0,.966-5.037c.1-2.213.125-2.92.125-8.555s-.025-6.341-.125-8.555a15.272,15.272,0,0,0-.966-5.037,10.6,10.6,0,0,0-6.07-6.07,15.3,15.3,0,0,0-5.037-.966C30.092,3.025,29.387,3,23.751,3m0,3.739c5.54,0,6.2.021,8.383.12a11.529,11.529,0,0,1,3.855.714,6.869,6.869,0,0,1,3.938,3.938,11.516,11.516,0,0,1,.714,3.853c.1,2.19.12,2.843.12,8.386s-.021,6.2-.12,8.383a11.6,11.6,0,0,1-.714,3.855,6.869,6.869,0,0,1-3.938,3.938,11.516,11.516,0,0,1-3.853.714c-2.187.1-2.843.12-8.386.12s-6.2-.021-8.383-.12a11.6,11.6,0,0,1-3.855-.714,6.869,6.869,0,0,1-3.938-3.938,11.444,11.444,0,0,1-.714-3.853c-.1-2.19-.12-2.843-.12-8.386s.021-6.2.12-8.383a11.529,11.529,0,0,1,.714-3.855A6.493,6.493,0,0,1,9.126,9.126a6.458,6.458,0,0,1,2.386-1.552,11.444,11.444,0,0,1,3.853-.714c2.19-.1,2.843-.12,8.386-.12m0,23.928a6.917,6.917,0,1,1,6.917-6.917,6.916,6.916,0,0,1-6.917,6.917m0-17.572A10.655,10.655,0,1,0,34.406,23.751,10.655,10.655,0,0,0,23.751,13.1m13.567-.421a2.49,2.49,0,1,1-2.49-2.49,2.49,2.49,0,0,1,2.49,2.49" transform="translate(-3 -3)" fill="#4f4d4d" fill-rule="evenodd"/>
</svg>
