<svg xmlns="http://www.w3.org/2000/svg" width="27.252" height="43.603" viewBox="0 0 27.252 43.603">
  <g id="phone" transform="translate(-6.75)">
    <path id="Path_446" data-name="Path 446" d="M28.551,2.725H12.2A2.725,2.725,0,0,0,9.475,5.45v32.7A2.725,2.725,0,0,0,12.2,40.877H28.551a2.725,2.725,0,0,0,2.725-2.725V5.45A2.725,2.725,0,0,0,28.551,2.725ZM12.2,0A5.45,5.45,0,0,0,6.75,5.45v32.7A5.45,5.45,0,0,0,12.2,43.6H28.551A5.45,5.45,0,0,0,34,38.152V5.45A5.45,5.45,0,0,0,28.551,0Z" fill="#4f4d4d" fill-rule="evenodd"/>
    <path id="Path_447" data-name="Path 447" d="M18.475,32.45a2.725,2.725,0,1,0-2.725-2.725A2.725,2.725,0,0,0,18.475,32.45Z" transform="translate(1.901 5.702)" fill="#4f4d4d" fill-rule="evenodd"/>
  </g>
</svg>
