<svg xmlns="http://www.w3.org/2000/svg" width="42.479" height="42.479" viewBox="0 0 42.479 42.479">
  <g id="social-whatsapp-outline" transform="translate(-2.25 -2.25)">
    <path id="Path_451" data-name="Path 451" d="M16.246,11.093c-.405-1.068-.874-.992-1.186-1s-.585-.005-1.007,0A2.06,2.06,0,0,0,12.6,10.7a5.859,5.859,0,0,0-2.039,4.314c-.1,2.585,1.722,5.155,1.977,5.514s3.477,5.965,8.833,8.27,5.384,1.6,6.368,1.551,3.212-1.155,3.706-2.365a4.306,4.306,0,0,0,.406-2.486c-.126-.224-.477-.369-1-.651S27.747,23.193,27.263,23s-.837-.294-1.214.22-1.447,1.657-1.772,2-.64.372-1.165.087a14.641,14.641,0,0,1-4.2-2.765,15.89,15.89,0,0,1-2.837-3.749c-.293-.538,0-.812.276-1.063.249-.227.558-.594.837-.891a3.58,3.58,0,0,0,.568-.857.955.955,0,0,0-.009-.922c-.125-.268-1.095-2.893-1.5-3.961Z" transform="translate(2.843 2.78)" fill="#4f4d4d" fill-rule="evenodd"/>
    <path id="Path_452" data-name="Path 452" d="M23.875,5.284a17.783,17.783,0,0,1,12.609,5.18,17.546,17.546,0,0,1,0,24.956A17.787,17.787,0,0,1,23.875,40.6a17.969,17.969,0,0,1-8.62-2.2l-1.14-.626-1.238.394L7.051,40.021,8.887,34.6l.454-1.342-.736-1.21a17.541,17.541,0,0,1,2.661-21.584A17.777,17.777,0,0,1,23.875,5.284m0-3.034A20.774,20.774,0,0,0,3.021,22.942,20.479,20.479,0,0,0,6.014,33.626L2.25,44.729,13.8,41.061A20.888,20.888,0,0,0,44.729,22.942,20.773,20.773,0,0,0,23.875,2.25Z" transform="translate(0 0)" fill="#4f4d4d"/>
  </g>
</svg>
